<mxfile host="65bd71144e">
    <diagram id="2_mTa4alVGTlwY9z7brJ" name="Entites">
        <mxGraphModel dx="2264" dy="1913" grid="1" gridSize="10" guides="1" tooltips="1" connect="1" arrows="1" fold="1" page="1" pageScale="1" pageWidth="850" pageHeight="1100" math="0" shadow="0">
            <root>
                <mxCell id="0"/>
                <mxCell id="1" parent="0"/>
                <mxCell id="22" style="edgeStyle=none;html=1;exitX=0;exitY=0.5;exitDx=0;exitDy=0;entryX=1;entryY=0.5;entryDx=0;entryDy=0;endArrow=none;endFill=0;strokeWidth=2;" parent="1" source="2" target="3" edge="1">
                    <mxGeometry relative="1" as="geometry"/>
                </mxCell>
                <mxCell id="43" style="edgeStyle=none;html=1;exitX=0.5;exitY=1;exitDx=0;exitDy=0;entryX=0.5;entryY=0;entryDx=0;entryDy=0;endArrow=none;endFill=0;strokeWidth=2;" parent="1" source="2" target="10" edge="1">
                    <mxGeometry relative="1" as="geometry"/>
                </mxCell>
                <mxCell id="46" style="edgeStyle=none;html=1;exitX=0.5;exitY=0;exitDx=0;exitDy=0;entryX=0.5;entryY=1;entryDx=0;entryDy=0;endArrow=none;endFill=0;strokeWidth=2;" parent="1" source="2" target="8" edge="1">
                    <mxGeometry relative="1" as="geometry"/>
                </mxCell>
                <mxCell id="47" style="edgeStyle=none;html=1;exitX=0.75;exitY=0;exitDx=0;exitDy=0;entryX=0.5;entryY=1;entryDx=0;entryDy=0;endArrow=none;endFill=0;strokeWidth=2;" parent="1" source="2" target="9" edge="1">
                    <mxGeometry relative="1" as="geometry"/>
                </mxCell>
                <mxCell id="48" style="edgeStyle=none;html=1;exitX=1;exitY=0;exitDx=0;exitDy=0;entryX=0;entryY=1;entryDx=0;entryDy=0;endArrow=none;endFill=0;strokeWidth=2;" parent="1" source="2" target="28" edge="1">
                    <mxGeometry relative="1" as="geometry"/>
                </mxCell>
                <mxCell id="2" value="Customer" style="whiteSpace=wrap;html=1;align=center;" parent="1" vertex="1">
                    <mxGeometry x="160" y="120" width="100" height="40" as="geometry"/>
                </mxCell>
                <mxCell id="3" value="CustomerID" style="ellipse;whiteSpace=wrap;html=1;align=center;fontStyle=4;" parent="1" vertex="1">
                    <mxGeometry x="20" y="120" width="100" height="40" as="geometry"/>
                </mxCell>
                <mxCell id="8" value="FathersName" style="ellipse;whiteSpace=wrap;html=1;align=center;" parent="1" vertex="1">
                    <mxGeometry x="230" y="-10" width="100" height="40" as="geometry"/>
                </mxCell>
                <mxCell id="9" value="PhoneNumber" style="ellipse;shape=doubleEllipse;margin=3;whiteSpace=wrap;html=1;align=center;" parent="1" vertex="1">
                    <mxGeometry x="290" y="40" width="100" height="40" as="geometry"/>
                </mxCell>
                <mxCell id="21" value="" style="group" parent="1" vertex="1" connectable="0">
                    <mxGeometry x="40" y="210" width="340" height="100" as="geometry"/>
                </mxCell>
                <mxCell id="10" value="Address" style="ellipse;whiteSpace=wrap;html=1;align=center;" parent="21" vertex="1">
                    <mxGeometry x="120" width="100" height="40" as="geometry"/>
                </mxCell>
                <mxCell id="11" value="City" style="ellipse;whiteSpace=wrap;html=1;align=center;" parent="21" vertex="1">
                    <mxGeometry width="100" height="40" as="geometry"/>
                </mxCell>
                <mxCell id="15" style="edgeStyle=none;html=1;exitX=0;exitY=0.5;exitDx=0;exitDy=0;entryX=1;entryY=0.5;entryDx=0;entryDy=0;endArrow=none;endFill=0;strokeWidth=2;" parent="21" source="10" target="11" edge="1">
                    <mxGeometry relative="1" as="geometry"/>
                </mxCell>
                <mxCell id="12" value="Street" style="ellipse;whiteSpace=wrap;html=1;align=center;" parent="21" vertex="1">
                    <mxGeometry x="50" y="60" width="100" height="40" as="geometry"/>
                </mxCell>
                <mxCell id="18" style="edgeStyle=none;html=1;exitX=0;exitY=1;exitDx=0;exitDy=0;entryX=0.728;entryY=-0.01;entryDx=0;entryDy=0;entryPerimeter=0;endArrow=none;endFill=0;strokeWidth=2;" parent="21" source="10" target="12" edge="1">
                    <mxGeometry relative="1" as="geometry"/>
                </mxCell>
                <mxCell id="13" value="Number" style="ellipse;whiteSpace=wrap;html=1;align=center;" parent="21" vertex="1">
                    <mxGeometry x="240" width="100" height="40" as="geometry"/>
                </mxCell>
                <mxCell id="20" style="edgeStyle=none;html=1;exitX=1;exitY=0.5;exitDx=0;exitDy=0;entryX=0;entryY=0.5;entryDx=0;entryDy=0;endArrow=none;endFill=0;strokeWidth=2;" parent="21" source="10" target="13" edge="1">
                    <mxGeometry relative="1" as="geometry"/>
                </mxCell>
                <mxCell id="14" value="Postcode" style="ellipse;whiteSpace=wrap;html=1;align=center;" parent="21" vertex="1">
                    <mxGeometry x="190" y="60" width="100" height="40" as="geometry"/>
                </mxCell>
                <mxCell id="19" style="edgeStyle=none;html=1;exitX=1;exitY=1;exitDx=0;exitDy=0;entryX=0.272;entryY=0.01;entryDx=0;entryDy=0;entryPerimeter=0;endArrow=none;endFill=0;strokeWidth=2;" parent="21" source="10" target="14" edge="1">
                    <mxGeometry relative="1" as="geometry"/>
                </mxCell>
                <mxCell id="28" value="Email" style="ellipse;whiteSpace=wrap;html=1;align=center;" parent="1" vertex="1">
                    <mxGeometry x="340" y="90" width="100" height="40" as="geometry"/>
                </mxCell>
                <mxCell id="38" style="edgeStyle=none;html=1;exitX=0;exitY=0.5;exitDx=0;exitDy=0;entryX=1;entryY=0.5;entryDx=0;entryDy=0;endArrow=none;endFill=0;strokeWidth=2;" parent="1" source="31" target="32" edge="1">
                    <mxGeometry relative="1" as="geometry"/>
                </mxCell>
                <mxCell id="39" style="edgeStyle=none;html=1;exitX=0;exitY=0;exitDx=0;exitDy=0;endArrow=none;endFill=0;strokeWidth=2;entryX=1;entryY=1;entryDx=0;entryDy=0;" parent="1" source="31" target="33" edge="1">
                    <mxGeometry relative="1" as="geometry">
                        <mxPoint x="690" y="50" as="targetPoint"/>
                    </mxGeometry>
                </mxCell>
                <mxCell id="40" style="edgeStyle=none;html=1;exitX=0.25;exitY=0;exitDx=0;exitDy=0;entryX=1;entryY=1;entryDx=0;entryDy=0;endArrow=none;endFill=0;strokeWidth=2;" parent="1" source="31" target="34" edge="1">
                    <mxGeometry relative="1" as="geometry"/>
                </mxCell>
                <mxCell id="41" style="edgeStyle=none;html=1;exitX=0.75;exitY=0;exitDx=0;exitDy=0;entryX=0.254;entryY=0.934;entryDx=0;entryDy=0;entryPerimeter=0;endArrow=none;endFill=0;strokeWidth=2;" parent="1" source="31" target="36" edge="1">
                    <mxGeometry relative="1" as="geometry"/>
                </mxCell>
                <mxCell id="42" style="edgeStyle=none;html=1;exitX=1;exitY=0;exitDx=0;exitDy=0;entryX=0;entryY=1;entryDx=0;entryDy=0;endArrow=none;endFill=0;strokeWidth=2;" parent="1" source="31" target="37" edge="1">
                    <mxGeometry relative="1" as="geometry"/>
                </mxCell>
                <mxCell id="31" value="Book" style="whiteSpace=wrap;html=1;align=center;" parent="1" vertex="1">
                    <mxGeometry x="680" y="80" width="100" height="40" as="geometry"/>
                </mxCell>
                <mxCell id="32" value="BookID" style="ellipse;whiteSpace=wrap;html=1;align=center;fontStyle=4;" parent="1" vertex="1">
                    <mxGeometry x="540" y="80" width="100" height="40" as="geometry"/>
                </mxCell>
                <mxCell id="33" value="Title" style="ellipse;whiteSpace=wrap;html=1;align=center;" parent="1" vertex="1">
                    <mxGeometry x="580" y="10" width="100" height="40" as="geometry"/>
                </mxCell>
                <mxCell id="34" value="PublicationYear" style="ellipse;whiteSpace=wrap;html=1;align=center;" parent="1" vertex="1">
                    <mxGeometry x="620" y="-40" width="100" height="40" as="geometry"/>
                </mxCell>
                <mxCell id="36" value="ISBN" style="ellipse;whiteSpace=wrap;html=1;align=center;" parent="1" vertex="1">
                    <mxGeometry x="730" y="-40" width="100" height="40" as="geometry"/>
                </mxCell>
                <mxCell id="37" value="Price" style="ellipse;whiteSpace=wrap;html=1;align=center;" parent="1" vertex="1">
                    <mxGeometry x="780" y="10" width="100" height="40" as="geometry"/>
                </mxCell>
                <mxCell id="65" style="edgeStyle=none;html=1;exitX=0.5;exitY=0;exitDx=0;exitDy=0;entryX=0.5;entryY=1;entryDx=0;entryDy=0;endArrow=none;endFill=0;strokeWidth=2;" parent="1" source="49" target="62" edge="1">
                    <mxGeometry relative="1" as="geometry"/>
                </mxCell>
                <mxCell id="66" style="edgeStyle=none;html=1;exitX=1;exitY=0.5;exitDx=0;exitDy=0;entryX=0;entryY=0.5;entryDx=0;entryDy=0;endArrow=none;endFill=0;strokeWidth=2;" parent="1" source="49" target="63" edge="1">
                    <mxGeometry relative="1" as="geometry"/>
                </mxCell>
                <mxCell id="49" value="Writer" style="whiteSpace=wrap;html=1;align=center;" parent="1" vertex="1">
                    <mxGeometry x="750" y="370" width="100" height="40" as="geometry"/>
                </mxCell>
                <mxCell id="64" style="edgeStyle=none;html=1;exitX=1;exitY=0.5;exitDx=0;exitDy=0;entryX=0;entryY=0.5;entryDx=0;entryDy=0;endArrow=none;endFill=0;strokeWidth=2;" parent="1" source="50" target="49" edge="1">
                    <mxGeometry relative="1" as="geometry"/>
                </mxCell>
                <mxCell id="50" value="WriterID" style="ellipse;whiteSpace=wrap;html=1;align=center;fontStyle=4;" parent="1" vertex="1">
                    <mxGeometry x="620" y="370" width="100" height="40" as="geometry"/>
                </mxCell>
                <mxCell id="55" value="" style="group" parent="1" vertex="1" connectable="0">
                    <mxGeometry x="20" y="-50" width="200" height="120" as="geometry"/>
                </mxCell>
                <mxCell id="4" value="FirstName" style="ellipse;whiteSpace=wrap;html=1;align=center;" parent="55" vertex="1">
                    <mxGeometry width="100" height="40" as="geometry"/>
                </mxCell>
                <mxCell id="7" value="LastName" style="ellipse;whiteSpace=wrap;html=1;align=center;" parent="55" vertex="1">
                    <mxGeometry x="100" width="100" height="40" as="geometry"/>
                </mxCell>
                <mxCell id="53" style="edgeStyle=none;html=1;exitX=0;exitY=0;exitDx=0;exitDy=0;entryX=0.5;entryY=1;entryDx=0;entryDy=0;endArrow=none;endFill=0;strokeWidth=2;" parent="55" source="51" target="4" edge="1">
                    <mxGeometry relative="1" as="geometry"/>
                </mxCell>
                <mxCell id="54" style="edgeStyle=none;html=1;exitX=1;exitY=0;exitDx=0;exitDy=0;entryX=0.5;entryY=1;entryDx=0;entryDy=0;endArrow=none;endFill=0;strokeWidth=2;" parent="55" source="51" target="7" edge="1">
                    <mxGeometry relative="1" as="geometry"/>
                </mxCell>
                <mxCell id="51" value="FullName" style="ellipse;whiteSpace=wrap;html=1;align=center;" parent="55" vertex="1">
                    <mxGeometry x="50" y="80" width="100" height="40" as="geometry"/>
                </mxCell>
                <mxCell id="56" style="edgeStyle=none;html=1;exitX=0.5;exitY=1;exitDx=0;exitDy=0;entryX=0.25;entryY=0;entryDx=0;entryDy=0;endArrow=none;endFill=0;strokeWidth=2;" parent="1" source="51" target="2" edge="1">
                    <mxGeometry relative="1" as="geometry"/>
                </mxCell>
                <mxCell id="57" value="" style="group" parent="1" vertex="1" connectable="0">
                    <mxGeometry x="700" y="220.00000000000023" width="200" height="120" as="geometry"/>
                </mxCell>
                <mxCell id="58" value="FirstName" style="ellipse;whiteSpace=wrap;html=1;align=center;" parent="57" vertex="1">
                    <mxGeometry width="100" height="40" as="geometry"/>
                </mxCell>
                <mxCell id="59" value="LastName" style="ellipse;whiteSpace=wrap;html=1;align=center;" parent="57" vertex="1">
                    <mxGeometry x="100" width="100" height="40" as="geometry"/>
                </mxCell>
                <mxCell id="60" style="edgeStyle=none;html=1;exitX=0;exitY=0;exitDx=0;exitDy=0;entryX=0.5;entryY=1;entryDx=0;entryDy=0;endArrow=none;endFill=0;strokeWidth=2;" parent="57" source="62" target="58" edge="1">
                    <mxGeometry relative="1" as="geometry"/>
                </mxCell>
                <mxCell id="61" style="edgeStyle=none;html=1;exitX=1;exitY=0;exitDx=0;exitDy=0;entryX=0.5;entryY=1;entryDx=0;entryDy=0;endArrow=none;endFill=0;strokeWidth=2;" parent="57" source="62" target="59" edge="1">
                    <mxGeometry relative="1" as="geometry"/>
                </mxCell>
                <mxCell id="62" value="FullName" style="ellipse;whiteSpace=wrap;html=1;align=center;" parent="57" vertex="1">
                    <mxGeometry x="50" y="80" width="100" height="40" as="geometry"/>
                </mxCell>
                <mxCell id="63" value="Email" style="ellipse;whiteSpace=wrap;html=1;align=center;" parent="1" vertex="1">
                    <mxGeometry x="880" y="370" width="100" height="40" as="geometry"/>
                </mxCell>
                <mxCell id="81" style="edgeStyle=none;html=1;exitX=0;exitY=0.5;exitDx=0;exitDy=0;entryX=1;entryY=0.5;entryDx=0;entryDy=0;endArrow=none;endFill=0;strokeWidth=2;" parent="1" source="67" target="68" edge="1">
                    <mxGeometry relative="1" as="geometry"/>
                </mxCell>
                <mxCell id="82" style="edgeStyle=none;html=1;exitX=0.5;exitY=1;exitDx=0;exitDy=0;entryX=0.5;entryY=0;entryDx=0;entryDy=0;endArrow=none;endFill=0;strokeWidth=2;" parent="1" source="67" target="71" edge="1">
                    <mxGeometry relative="1" as="geometry"/>
                </mxCell>
                <mxCell id="83" style="edgeStyle=none;html=1;exitX=0.25;exitY=0;exitDx=0;exitDy=0;entryX=0.5;entryY=1;entryDx=0;entryDy=0;endArrow=none;endFill=0;strokeWidth=2;" parent="1" source="67" target="69" edge="1">
                    <mxGeometry relative="1" as="geometry"/>
                </mxCell>
                <mxCell id="84" style="edgeStyle=none;html=1;exitX=0.75;exitY=0;exitDx=0;exitDy=0;entryX=0.5;entryY=1;entryDx=0;entryDy=0;endArrow=none;endFill=0;strokeWidth=2;" parent="1" source="67" target="80" edge="1">
                    <mxGeometry relative="1" as="geometry"/>
                </mxCell>
                <mxCell id="86" style="edgeStyle=none;html=1;exitX=1;exitY=0.5;exitDx=0;exitDy=0;entryX=0;entryY=0.5;entryDx=0;entryDy=0;endArrow=none;endFill=0;strokeWidth=2;" parent="1" source="67" target="85" edge="1">
                    <mxGeometry relative="1" as="geometry"/>
                </mxCell>
                <mxCell id="67" value="Publisher" style="whiteSpace=wrap;html=1;align=center;" parent="1" vertex="1">
                    <mxGeometry x="750" y="690" width="100" height="40" as="geometry"/>
                </mxCell>
                <mxCell id="68" value="PublisherID" style="ellipse;whiteSpace=wrap;html=1;align=center;fontStyle=4;" parent="1" vertex="1">
                    <mxGeometry x="610" y="690" width="100" height="40" as="geometry"/>
                </mxCell>
                <mxCell id="69" value="Name" style="ellipse;whiteSpace=wrap;html=1;align=center;" parent="1" vertex="1">
                    <mxGeometry x="680" y="610" width="100" height="40" as="geometry"/>
                </mxCell>
                <mxCell id="70" value="" style="group" parent="1" vertex="1" connectable="0">
                    <mxGeometry x="630" y="780" width="340" height="100" as="geometry"/>
                </mxCell>
                <mxCell id="71" value="Address" style="ellipse;whiteSpace=wrap;html=1;align=center;" parent="70" vertex="1">
                    <mxGeometry x="120" width="100" height="40" as="geometry"/>
                </mxCell>
                <mxCell id="72" value="City" style="ellipse;whiteSpace=wrap;html=1;align=center;" parent="70" vertex="1">
                    <mxGeometry width="100" height="40" as="geometry"/>
                </mxCell>
                <mxCell id="73" style="edgeStyle=none;html=1;exitX=0;exitY=0.5;exitDx=0;exitDy=0;entryX=1;entryY=0.5;entryDx=0;entryDy=0;endArrow=none;endFill=0;strokeWidth=2;" parent="70" source="71" target="72" edge="1">
                    <mxGeometry relative="1" as="geometry"/>
                </mxCell>
                <mxCell id="74" value="Street" style="ellipse;whiteSpace=wrap;html=1;align=center;" parent="70" vertex="1">
                    <mxGeometry x="50" y="60" width="100" height="40" as="geometry"/>
                </mxCell>
                <mxCell id="75" style="edgeStyle=none;html=1;exitX=0;exitY=1;exitDx=0;exitDy=0;entryX=0.728;entryY=-0.01;entryDx=0;entryDy=0;entryPerimeter=0;endArrow=none;endFill=0;strokeWidth=2;" parent="70" source="71" target="74" edge="1">
                    <mxGeometry relative="1" as="geometry"/>
                </mxCell>
                <mxCell id="76" value="Number" style="ellipse;whiteSpace=wrap;html=1;align=center;" parent="70" vertex="1">
                    <mxGeometry x="240" width="100" height="40" as="geometry"/>
                </mxCell>
                <mxCell id="77" style="edgeStyle=none;html=1;exitX=1;exitY=0.5;exitDx=0;exitDy=0;entryX=0;entryY=0.5;entryDx=0;entryDy=0;endArrow=none;endFill=0;strokeWidth=2;" parent="70" source="71" target="76" edge="1">
                    <mxGeometry relative="1" as="geometry"/>
                </mxCell>
                <mxCell id="78" value="Postcode" style="ellipse;whiteSpace=wrap;html=1;align=center;" parent="70" vertex="1">
                    <mxGeometry x="190" y="60" width="100" height="40" as="geometry"/>
                </mxCell>
                <mxCell id="79" style="edgeStyle=none;html=1;exitX=1;exitY=1;exitDx=0;exitDy=0;entryX=0.272;entryY=0.01;entryDx=0;entryDy=0;entryPerimeter=0;endArrow=none;endFill=0;strokeWidth=2;" parent="70" source="71" target="78" edge="1">
                    <mxGeometry relative="1" as="geometry"/>
                </mxCell>
                <mxCell id="80" value="PhoneNumber" style="ellipse;shape=doubleEllipse;margin=3;whiteSpace=wrap;html=1;align=center;" parent="1" vertex="1">
                    <mxGeometry x="820" y="610" width="100" height="40" as="geometry"/>
                </mxCell>
                <mxCell id="85" value="WebsiteURL" style="ellipse;whiteSpace=wrap;html=1;align=center;" parent="1" vertex="1">
                    <mxGeometry x="920" y="690" width="100" height="40" as="geometry"/>
                </mxCell>
                <mxCell id="99" style="edgeStyle=none;html=1;exitX=0.5;exitY=1;exitDx=0;exitDy=0;entryX=0.5;entryY=0;entryDx=0;entryDy=0;endArrow=none;endFill=0;strokeWidth=2;" parent="1" source="87" target="90" edge="1">
                    <mxGeometry relative="1" as="geometry"/>
                </mxCell>
                <mxCell id="100" style="edgeStyle=none;html=1;exitX=0;exitY=0.5;exitDx=0;exitDy=0;entryX=1;entryY=0.5;entryDx=0;entryDy=0;endArrow=none;endFill=0;strokeWidth=2;" parent="1" source="87" target="88" edge="1">
                    <mxGeometry relative="1" as="geometry"/>
                </mxCell>
                <mxCell id="102" style="edgeStyle=none;html=1;exitX=1;exitY=0.5;exitDx=0;exitDy=0;entryX=0;entryY=0.5;entryDx=0;entryDy=0;endArrow=none;endFill=0;strokeWidth=2;" parent="1" source="87" target="101" edge="1">
                    <mxGeometry relative="1" as="geometry"/>
                </mxCell>
                <mxCell id="87" value="Warehouse" style="whiteSpace=wrap;html=1;align=center;" parent="1" vertex="1">
                    <mxGeometry x="120" y="720" width="100" height="40" as="geometry"/>
                </mxCell>
                <mxCell id="88" value="WarehouseID" style="ellipse;whiteSpace=wrap;html=1;align=center;fontStyle=4;" parent="1" vertex="1">
                    <mxGeometry x="-20" y="720" width="100" height="40" as="geometry"/>
                </mxCell>
                <mxCell id="89" value="" style="group" parent="1" vertex="1" connectable="0">
                    <mxGeometry y="800" width="340" height="100" as="geometry"/>
                </mxCell>
                <mxCell id="90" value="Address" style="ellipse;whiteSpace=wrap;html=1;align=center;" parent="89" vertex="1">
                    <mxGeometry x="120" width="100" height="40" as="geometry"/>
                </mxCell>
                <mxCell id="91" value="City" style="ellipse;whiteSpace=wrap;html=1;align=center;" parent="89" vertex="1">
                    <mxGeometry width="100" height="40" as="geometry"/>
                </mxCell>
                <mxCell id="92" style="edgeStyle=none;html=1;exitX=0;exitY=0.5;exitDx=0;exitDy=0;entryX=1;entryY=0.5;entryDx=0;entryDy=0;endArrow=none;endFill=0;strokeWidth=2;" parent="89" source="90" target="91" edge="1">
                    <mxGeometry relative="1" as="geometry"/>
                </mxCell>
                <mxCell id="93" value="Street" style="ellipse;whiteSpace=wrap;html=1;align=center;" parent="89" vertex="1">
                    <mxGeometry x="50" y="60" width="100" height="40" as="geometry"/>
                </mxCell>
                <mxCell id="94" style="edgeStyle=none;html=1;exitX=0;exitY=1;exitDx=0;exitDy=0;entryX=0.728;entryY=-0.01;entryDx=0;entryDy=0;entryPerimeter=0;endArrow=none;endFill=0;strokeWidth=2;" parent="89" source="90" target="93" edge="1">
                    <mxGeometry relative="1" as="geometry"/>
                </mxCell>
                <mxCell id="95" value="Number" style="ellipse;whiteSpace=wrap;html=1;align=center;" parent="89" vertex="1">
                    <mxGeometry x="240" width="100" height="40" as="geometry"/>
                </mxCell>
                <mxCell id="96" style="edgeStyle=none;html=1;exitX=1;exitY=0.5;exitDx=0;exitDy=0;entryX=0;entryY=0.5;entryDx=0;entryDy=0;endArrow=none;endFill=0;strokeWidth=2;" parent="89" source="90" target="95" edge="1">
                    <mxGeometry relative="1" as="geometry"/>
                </mxCell>
                <mxCell id="97" value="Postcode" style="ellipse;whiteSpace=wrap;html=1;align=center;" parent="89" vertex="1">
                    <mxGeometry x="190" y="60" width="100" height="40" as="geometry"/>
                </mxCell>
                <mxCell id="98" style="edgeStyle=none;html=1;exitX=1;exitY=1;exitDx=0;exitDy=0;entryX=0.272;entryY=0.01;entryDx=0;entryDy=0;entryPerimeter=0;endArrow=none;endFill=0;strokeWidth=2;" parent="89" source="90" target="97" edge="1">
                    <mxGeometry relative="1" as="geometry"/>
                </mxCell>
                <mxCell id="101" value="PhoneNumber" style="ellipse;shape=doubleEllipse;margin=3;whiteSpace=wrap;html=1;align=center;" parent="1" vertex="1">
                    <mxGeometry x="250" y="720" width="100" height="40" as="geometry"/>
                </mxCell>
            </root>
        </mxGraphModel>
    </diagram>
    <diagram id="wyDl2Ul-N9_5qi4C37ir" name="Relationships">
        <mxGraphModel dx="990" dy="569" grid="1" gridSize="10" guides="1" tooltips="1" connect="1" arrows="1" fold="1" page="1" pageScale="1" pageWidth="850" pageHeight="1100" math="0" shadow="0">
            <root>
                <mxCell id="aF9csKKoS5-JwzuXV8-k-0"/>
                <mxCell id="aF9csKKoS5-JwzuXV8-k-1" parent="aF9csKKoS5-JwzuXV8-k-0"/>
                <mxCell id="aF9csKKoS5-JwzuXV8-k-2" value="Book" style="whiteSpace=wrap;html=1;align=center;" parent="aF9csKKoS5-JwzuXV8-k-1" vertex="1">
                    <mxGeometry x="160" y="240" width="100" height="40" as="geometry"/>
                </mxCell>
                <mxCell id="aF9csKKoS5-JwzuXV8-k-3" value="Writer" style="whiteSpace=wrap;html=1;align=center;" parent="aF9csKKoS5-JwzuXV8-k-1" vertex="1">
                    <mxGeometry x="500" y="240" width="100" height="40" as="geometry"/>
                </mxCell>
                <mxCell id="aF9csKKoS5-JwzuXV8-k-4" value="Wrote" style="shape=rhombus;perimeter=rhombusPerimeter;whiteSpace=wrap;html=1;align=center;" parent="aF9csKKoS5-JwzuXV8-k-1" vertex="1">
                    <mxGeometry x="320" y="230" width="120" height="60" as="geometry"/>
                </mxCell>
                <mxCell id="aF9csKKoS5-JwzuXV8-k-5" value="" style="shape=link;html=1;rounded=0;endArrow=none;endFill=0;strokeWidth=2;exitX=1;exitY=0.5;exitDx=0;exitDy=0;entryX=0;entryY=0.5;entryDx=0;entryDy=0;" parent="aF9csKKoS5-JwzuXV8-k-1" source="aF9csKKoS5-JwzuXV8-k-2" target="aF9csKKoS5-JwzuXV8-k-4" edge="1">
                    <mxGeometry relative="1" as="geometry">
                        <mxPoint x="310" y="330" as="sourcePoint"/>
                        <mxPoint x="470" y="330" as="targetPoint"/>
                    </mxGeometry>
                </mxCell>
                <mxCell id="aF9csKKoS5-JwzuXV8-k-6" value="N" style="resizable=0;html=1;align=right;verticalAlign=bottom;" parent="aF9csKKoS5-JwzuXV8-k-5" connectable="0" vertex="1">
                    <mxGeometry x="1" relative="1" as="geometry"/>
                </mxCell>
                <mxCell id="aF9csKKoS5-JwzuXV8-k-9" value="Published" style="shape=rhombus;perimeter=rhombusPerimeter;whiteSpace=wrap;html=1;align=center;" parent="aF9csKKoS5-JwzuXV8-k-1" vertex="1">
                    <mxGeometry x="320" y="410" width="120" height="60" as="geometry"/>
                </mxCell>
                <mxCell id="aF9csKKoS5-JwzuXV8-k-10" value="Publisher" style="whiteSpace=wrap;html=1;align=center;" parent="aF9csKKoS5-JwzuXV8-k-1" vertex="1">
                    <mxGeometry x="500" y="420" width="100" height="40" as="geometry"/>
                </mxCell>
                <mxCell id="aF9csKKoS5-JwzuXV8-k-11" value="Book" style="whiteSpace=wrap;html=1;align=center;" parent="aF9csKKoS5-JwzuXV8-k-1" vertex="1">
                    <mxGeometry x="160" y="420" width="100" height="40" as="geometry"/>
                </mxCell>
                <mxCell id="aF9csKKoS5-JwzuXV8-k-12" value="" style="shape=link;html=1;rounded=0;endArrow=none;endFill=0;strokeWidth=2;entryX=0;entryY=0.5;entryDx=0;entryDy=0;exitX=1;exitY=0.5;exitDx=0;exitDy=0;" parent="aF9csKKoS5-JwzuXV8-k-1" source="aF9csKKoS5-JwzuXV8-k-11" target="aF9csKKoS5-JwzuXV8-k-9" edge="1">
                    <mxGeometry relative="1" as="geometry">
                        <mxPoint x="300" y="470" as="sourcePoint"/>
                        <mxPoint x="310" y="490" as="targetPoint"/>
                    </mxGeometry>
                </mxCell>
                <mxCell id="aF9csKKoS5-JwzuXV8-k-13" value="N" style="resizable=0;html=1;align=right;verticalAlign=bottom;" parent="aF9csKKoS5-JwzuXV8-k-12" connectable="0" vertex="1">
                    <mxGeometry x="1" relative="1" as="geometry"/>
                </mxCell>
                <mxCell id="aF9csKKoS5-JwzuXV8-k-14" value="" style="endArrow=none;html=1;rounded=0;strokeWidth=2;entryX=1;entryY=0.5;entryDx=0;entryDy=0;exitX=0;exitY=0.5;exitDx=0;exitDy=0;" parent="aF9csKKoS5-JwzuXV8-k-1" source="aF9csKKoS5-JwzuXV8-k-10" target="aF9csKKoS5-JwzuXV8-k-9" edge="1">
                    <mxGeometry relative="1" as="geometry">
                        <mxPoint x="510" y="270" as="sourcePoint"/>
                        <mxPoint x="450" y="270" as="targetPoint"/>
                    </mxGeometry>
                </mxCell>
                <mxCell id="aF9csKKoS5-JwzuXV8-k-15" value="1" style="resizable=0;html=1;align=right;verticalAlign=bottom;" parent="aF9csKKoS5-JwzuXV8-k-14" connectable="0" vertex="1">
                    <mxGeometry x="1" relative="1" as="geometry"/>
                </mxCell>
                <mxCell id="aF9csKKoS5-JwzuXV8-k-26" style="edgeStyle=none;html=1;exitX=0.5;exitY=0;exitDx=0;exitDy=0;endArrow=none;endFill=0;strokeWidth=2;entryX=0.5;entryY=1;entryDx=0;entryDy=0;" parent="aF9csKKoS5-JwzuXV8-k-1" source="aF9csKKoS5-JwzuXV8-k-16" target="aF9csKKoS5-JwzuXV8-k-25" edge="1">
                    <mxGeometry relative="1" as="geometry">
                        <mxPoint x="380" y="600" as="targetPoint"/>
                    </mxGeometry>
                </mxCell>
                <mxCell id="aF9csKKoS5-JwzuXV8-k-16" value="Stores" style="shape=rhombus;perimeter=rhombusPerimeter;whiteSpace=wrap;html=1;align=center;" parent="aF9csKKoS5-JwzuXV8-k-1" vertex="1">
                    <mxGeometry x="320" y="610" width="120" height="60" as="geometry"/>
                </mxCell>
                <mxCell id="aF9csKKoS5-JwzuXV8-k-17" value="Warehouse" style="whiteSpace=wrap;html=1;align=center;" parent="aF9csKKoS5-JwzuXV8-k-1" vertex="1">
                    <mxGeometry x="500" y="620" width="100" height="40" as="geometry"/>
                </mxCell>
                <mxCell id="aF9csKKoS5-JwzuXV8-k-18" value="Book" style="whiteSpace=wrap;html=1;align=center;" parent="aF9csKKoS5-JwzuXV8-k-1" vertex="1">
                    <mxGeometry x="160" y="620" width="100" height="40" as="geometry"/>
                </mxCell>
                <mxCell id="aF9csKKoS5-JwzuXV8-k-19" value="" style="shape=link;html=1;rounded=0;endArrow=none;endFill=0;strokeWidth=2;entryX=0;entryY=0.5;entryDx=0;entryDy=0;exitX=1;exitY=0.5;exitDx=0;exitDy=0;" parent="aF9csKKoS5-JwzuXV8-k-1" source="aF9csKKoS5-JwzuXV8-k-18" target="aF9csKKoS5-JwzuXV8-k-16" edge="1">
                    <mxGeometry relative="1" as="geometry">
                        <mxPoint x="270" y="490" as="sourcePoint"/>
                        <mxPoint x="330" y="490" as="targetPoint"/>
                    </mxGeometry>
                </mxCell>
                <mxCell id="aF9csKKoS5-JwzuXV8-k-20" value="N" style="resizable=0;html=1;align=right;verticalAlign=bottom;" parent="aF9csKKoS5-JwzuXV8-k-19" connectable="0" vertex="1">
                    <mxGeometry x="1" relative="1" as="geometry"/>
                </mxCell>
                <mxCell id="aF9csKKoS5-JwzuXV8-k-21" value="" style="endArrow=none;html=1;rounded=0;strokeWidth=2;entryX=1;entryY=0.5;entryDx=0;entryDy=0;exitX=0;exitY=0.5;exitDx=0;exitDy=0;" parent="aF9csKKoS5-JwzuXV8-k-1" source="aF9csKKoS5-JwzuXV8-k-17" target="aF9csKKoS5-JwzuXV8-k-16" edge="1">
                    <mxGeometry relative="1" as="geometry">
                        <mxPoint x="510" y="490" as="sourcePoint"/>
                        <mxPoint x="450" y="490" as="targetPoint"/>
                    </mxGeometry>
                </mxCell>
                <mxCell id="aF9csKKoS5-JwzuXV8-k-22" value="1" style="resizable=0;html=1;align=right;verticalAlign=bottom;" parent="aF9csKKoS5-JwzuXV8-k-21" connectable="0" vertex="1">
                    <mxGeometry x="1" relative="1" as="geometry"/>
                </mxCell>
                <mxCell id="aF9csKKoS5-JwzuXV8-k-23" value="" style="endArrow=none;html=1;rounded=0;strokeWidth=2;entryX=1;entryY=0.5;entryDx=0;entryDy=0;exitX=0;exitY=0.5;exitDx=0;exitDy=0;" parent="aF9csKKoS5-JwzuXV8-k-1" source="aF9csKKoS5-JwzuXV8-k-3" target="aF9csKKoS5-JwzuXV8-k-4" edge="1">
                    <mxGeometry relative="1" as="geometry">
                        <mxPoint x="300" y="410" as="sourcePoint"/>
                        <mxPoint x="460" y="410" as="targetPoint"/>
                    </mxGeometry>
                </mxCell>
                <mxCell id="aF9csKKoS5-JwzuXV8-k-24" value="N" style="resizable=0;html=1;align=right;verticalAlign=bottom;" parent="aF9csKKoS5-JwzuXV8-k-23" connectable="0" vertex="1">
                    <mxGeometry x="1" relative="1" as="geometry"/>
                </mxCell>
                <mxCell id="aF9csKKoS5-JwzuXV8-k-25" value="Quantity" style="ellipse;whiteSpace=wrap;html=1;align=center;" parent="aF9csKKoS5-JwzuXV8-k-1" vertex="1">
                    <mxGeometry x="330" y="550" width="100" height="40" as="geometry"/>
                </mxCell>
                <mxCell id="aF9csKKoS5-JwzuXV8-k-29" style="edgeStyle=none;html=1;exitX=0.5;exitY=0;exitDx=0;exitDy=0;entryX=0.5;entryY=1;entryDx=0;entryDy=0;endArrow=none;endFill=0;strokeWidth=2;" parent="aF9csKKoS5-JwzuXV8-k-1" source="aF9csKKoS5-JwzuXV8-k-27" target="aF9csKKoS5-JwzuXV8-k-28" edge="1">
                    <mxGeometry relative="1" as="geometry"/>
                </mxCell>
                <mxCell id="aF9csKKoS5-JwzuXV8-k-27" value="ShoppingCart" style="shape=ext;margin=3;double=1;whiteSpace=wrap;html=1;align=center;" parent="aF9csKKoS5-JwzuXV8-k-1" vertex="1">
                    <mxGeometry x="160" y="860" width="100" height="40" as="geometry"/>
                </mxCell>
                <mxCell id="aF9csKKoS5-JwzuXV8-k-28" value="&lt;span style=&quot;border-bottom: 1px dotted&quot;&gt;CartID&lt;/span&gt;" style="ellipse;whiteSpace=wrap;html=1;align=center;" parent="aF9csKKoS5-JwzuXV8-k-1" vertex="1">
                    <mxGeometry x="160" y="800" width="100" height="40" as="geometry"/>
                </mxCell>
                <mxCell id="aF9csKKoS5-JwzuXV8-k-30" value="IsShopping" style="shape=rhombus;double=1;perimeter=rhombusPerimeter;whiteSpace=wrap;html=1;align=center;" parent="aF9csKKoS5-JwzuXV8-k-1" vertex="1">
                    <mxGeometry x="320" y="850" width="120" height="60" as="geometry"/>
                </mxCell>
                <mxCell id="aF9csKKoS5-JwzuXV8-k-37" style="edgeStyle=none;html=1;exitX=0.5;exitY=0;exitDx=0;exitDy=0;entryX=0.5;entryY=1;entryDx=0;entryDy=0;endArrow=none;endFill=0;strokeWidth=2;" parent="aF9csKKoS5-JwzuXV8-k-1" source="aF9csKKoS5-JwzuXV8-k-31" target="aF9csKKoS5-JwzuXV8-k-36" edge="1">
                    <mxGeometry relative="1" as="geometry"/>
                </mxCell>
                <mxCell id="aF9csKKoS5-JwzuXV8-k-31" value="Customer" style="whiteSpace=wrap;html=1;align=center;" parent="aF9csKKoS5-JwzuXV8-k-1" vertex="1">
                    <mxGeometry x="500" y="860" width="100" height="40" as="geometry"/>
                </mxCell>
                <mxCell id="aF9csKKoS5-JwzuXV8-k-32" value="" style="endArrow=none;html=1;rounded=0;strokeWidth=2;entryX=1;entryY=0.5;entryDx=0;entryDy=0;exitX=0;exitY=0.5;exitDx=0;exitDy=0;" parent="aF9csKKoS5-JwzuXV8-k-1" source="aF9csKKoS5-JwzuXV8-k-31" target="aF9csKKoS5-JwzuXV8-k-30" edge="1">
                    <mxGeometry relative="1" as="geometry">
                        <mxPoint x="425" y="980" as="sourcePoint"/>
                        <mxPoint x="585" y="980" as="targetPoint"/>
                    </mxGeometry>
                </mxCell>
                <mxCell id="aF9csKKoS5-JwzuXV8-k-33" value="1" style="resizable=0;html=1;align=right;verticalAlign=bottom;" parent="aF9csKKoS5-JwzuXV8-k-32" connectable="0" vertex="1">
                    <mxGeometry x="1" relative="1" as="geometry"/>
                </mxCell>
                <mxCell id="aF9csKKoS5-JwzuXV8-k-34" value="" style="shape=link;html=1;rounded=0;endArrow=none;endFill=0;strokeWidth=2;exitX=1;exitY=0.5;exitDx=0;exitDy=0;" parent="aF9csKKoS5-JwzuXV8-k-1" source="aF9csKKoS5-JwzuXV8-k-27" edge="1">
                    <mxGeometry relative="1" as="geometry">
                        <mxPoint x="330" y="880" as="sourcePoint"/>
                        <mxPoint x="320" y="880" as="targetPoint"/>
                    </mxGeometry>
                </mxCell>
                <mxCell id="aF9csKKoS5-JwzuXV8-k-35" value="N" style="resizable=0;html=1;align=right;verticalAlign=bottom;" parent="aF9csKKoS5-JwzuXV8-k-34" connectable="0" vertex="1">
                    <mxGeometry x="1" relative="1" as="geometry"/>
                </mxCell>
                <mxCell id="aF9csKKoS5-JwzuXV8-k-36" value="CustomerID" style="ellipse;whiteSpace=wrap;html=1;align=center;fontStyle=4;" parent="aF9csKKoS5-JwzuXV8-k-1" vertex="1">
                    <mxGeometry x="500" y="800" width="100" height="40" as="geometry"/>
                </mxCell>
                <mxCell id="aF9csKKoS5-JwzuXV8-k-39" style="edgeStyle=none;html=1;exitX=1;exitY=0.5;exitDx=0;exitDy=0;entryX=0;entryY=0.5;entryDx=0;entryDy=0;endArrow=none;endFill=0;strokeWidth=2;" parent="aF9csKKoS5-JwzuXV8-k-1" source="aF9csKKoS5-JwzuXV8-k-38" target="aF9csKKoS5-JwzuXV8-k-27" edge="1">
                    <mxGeometry relative="1" as="geometry"/>
                </mxCell>
                <mxCell id="aF9csKKoS5-JwzuXV8-k-38" value="PurchaseDate" style="ellipse;whiteSpace=wrap;html=1;align=center;" parent="aF9csKKoS5-JwzuXV8-k-1" vertex="1">
                    <mxGeometry x="40" y="860" width="100" height="40" as="geometry"/>
                </mxCell>
                <mxCell id="aF9csKKoS5-JwzuXV8-k-40" value="Contains" style="shape=rhombus;perimeter=rhombusPerimeter;whiteSpace=wrap;html=1;align=center;" parent="aF9csKKoS5-JwzuXV8-k-1" vertex="1">
                    <mxGeometry x="150" y="950" width="120" height="60" as="geometry"/>
                </mxCell>
                <mxCell id="aF9csKKoS5-JwzuXV8-k-41" value="Book" style="whiteSpace=wrap;html=1;align=center;" parent="aF9csKKoS5-JwzuXV8-k-1" vertex="1">
                    <mxGeometry x="160" y="1060" width="100" height="40" as="geometry"/>
                </mxCell>
                <mxCell id="aF9csKKoS5-JwzuXV8-k-44" value="" style="endArrow=none;html=1;rounded=0;strokeWidth=2;exitX=0.5;exitY=1;exitDx=0;exitDy=0;entryX=0.5;entryY=0;entryDx=0;entryDy=0;" parent="aF9csKKoS5-JwzuXV8-k-1" source="aF9csKKoS5-JwzuXV8-k-27" target="aF9csKKoS5-JwzuXV8-k-40" edge="1">
                    <mxGeometry relative="1" as="geometry">
                        <mxPoint x="210" y="970" as="sourcePoint"/>
                        <mxPoint x="370" y="970" as="targetPoint"/>
                    </mxGeometry>
                </mxCell>
                <mxCell id="aF9csKKoS5-JwzuXV8-k-45" value="N" style="resizable=0;html=1;align=right;verticalAlign=bottom;" parent="aF9csKKoS5-JwzuXV8-k-44" connectable="0" vertex="1">
                    <mxGeometry x="1" relative="1" as="geometry"/>
                </mxCell>
                <mxCell id="aF9csKKoS5-JwzuXV8-k-46" value="" style="endArrow=none;html=1;rounded=0;strokeWidth=2;exitX=0.5;exitY=0;exitDx=0;exitDy=0;entryX=0.5;entryY=1;entryDx=0;entryDy=0;" parent="aF9csKKoS5-JwzuXV8-k-1" source="aF9csKKoS5-JwzuXV8-k-41" target="aF9csKKoS5-JwzuXV8-k-40" edge="1">
                    <mxGeometry relative="1" as="geometry">
                        <mxPoint x="210" y="970" as="sourcePoint"/>
                        <mxPoint x="370" y="970" as="targetPoint"/>
                    </mxGeometry>
                </mxCell>
                <mxCell id="aF9csKKoS5-JwzuXV8-k-47" value="N" style="resizable=0;html=1;align=right;verticalAlign=bottom;" parent="aF9csKKoS5-JwzuXV8-k-46" connectable="0" vertex="1">
                    <mxGeometry x="1" relative="1" as="geometry"/>
                </mxCell>
            </root>
        </mxGraphModel>
    </diagram>
    <diagram id="WeyxR1ghkhjOYSXL7svt" name="ER">
        <mxGraphModel dx="1797" dy="2164" grid="1" gridSize="10" guides="1" tooltips="1" connect="1" arrows="1" fold="1" page="1" pageScale="1" pageWidth="850" pageHeight="1100" math="0" shadow="0">
            <root>
                <mxCell id="V-ujdH5ubDhLP4uPMUQp-0"/>
                <mxCell id="V-ujdH5ubDhLP4uPMUQp-1" parent="V-ujdH5ubDhLP4uPMUQp-0"/>
                <mxCell id="mzPPIke4VZpRd02Qtkyj-11" style="edgeStyle=none;html=1;exitX=0;exitY=0;exitDx=0;exitDy=0;entryX=1;entryY=0.5;entryDx=0;entryDy=0;endArrow=none;endFill=0;strokeWidth=2;" parent="V-ujdH5ubDhLP4uPMUQp-1" source="S7RAa20YkkKwCKf99ZVP-0" target="mzPPIke4VZpRd02Qtkyj-6" edge="1">
                    <mxGeometry relative="1" as="geometry"/>
                </mxCell>
                <mxCell id="mzPPIke4VZpRd02Qtkyj-12" style="edgeStyle=none;html=1;exitX=0.25;exitY=0;exitDx=0;exitDy=0;entryX=0.5;entryY=1;entryDx=0;entryDy=0;endArrow=none;endFill=0;strokeWidth=2;" parent="V-ujdH5ubDhLP4uPMUQp-1" source="S7RAa20YkkKwCKf99ZVP-0" target="mzPPIke4VZpRd02Qtkyj-7" edge="1">
                    <mxGeometry relative="1" as="geometry"/>
                </mxCell>
                <mxCell id="mzPPIke4VZpRd02Qtkyj-13" style="edgeStyle=none;html=1;exitX=0.75;exitY=0;exitDx=0;exitDy=0;entryX=0.5;entryY=1;entryDx=0;entryDy=0;endArrow=none;endFill=0;strokeWidth=2;" parent="V-ujdH5ubDhLP4uPMUQp-1" source="S7RAa20YkkKwCKf99ZVP-0" target="mzPPIke4VZpRd02Qtkyj-9" edge="1">
                    <mxGeometry relative="1" as="geometry"/>
                </mxCell>
                <mxCell id="mzPPIke4VZpRd02Qtkyj-14" style="edgeStyle=none;html=1;exitX=1;exitY=0;exitDx=0;exitDy=0;entryX=0;entryY=0.5;entryDx=0;entryDy=0;endArrow=none;endFill=0;strokeWidth=2;" parent="V-ujdH5ubDhLP4uPMUQp-1" source="S7RAa20YkkKwCKf99ZVP-0" target="mzPPIke4VZpRd02Qtkyj-8" edge="1">
                    <mxGeometry relative="1" as="geometry"/>
                </mxCell>
                <mxCell id="mzPPIke4VZpRd02Qtkyj-15" style="edgeStyle=none;html=1;exitX=1;exitY=1;exitDx=0;exitDy=0;entryX=0;entryY=0.5;entryDx=0;entryDy=0;endArrow=none;endFill=0;strokeWidth=2;" parent="V-ujdH5ubDhLP4uPMUQp-1" source="S7RAa20YkkKwCKf99ZVP-0" target="mzPPIke4VZpRd02Qtkyj-10" edge="1">
                    <mxGeometry relative="1" as="geometry"/>
                </mxCell>
                <mxCell id="S7RAa20YkkKwCKf99ZVP-0" value="Book" style="whiteSpace=wrap;html=1;align=center;" parent="V-ujdH5ubDhLP4uPMUQp-1" vertex="1">
                    <mxGeometry x="330" y="240" width="100" height="40" as="geometry"/>
                </mxCell>
                <mxCell id="S7RAa20YkkKwCKf99ZVP-1" value="Writer" style="whiteSpace=wrap;html=1;align=center;" parent="V-ujdH5ubDhLP4uPMUQp-1" vertex="1">
                    <mxGeometry x="870" y="240" width="100" height="40" as="geometry"/>
                </mxCell>
                <mxCell id="S7RAa20YkkKwCKf99ZVP-2" value="Wrote" style="shape=rhombus;perimeter=rhombusPerimeter;whiteSpace=wrap;html=1;align=center;" parent="V-ujdH5ubDhLP4uPMUQp-1" vertex="1">
                    <mxGeometry x="690" y="230" width="120" height="60" as="geometry"/>
                </mxCell>
                <mxCell id="S7RAa20YkkKwCKf99ZVP-3" value="" style="shape=link;html=1;rounded=0;endArrow=none;endFill=0;strokeWidth=2;exitX=1;exitY=0.5;exitDx=0;exitDy=0;entryX=0;entryY=0.5;entryDx=0;entryDy=0;" parent="V-ujdH5ubDhLP4uPMUQp-1" source="S7RAa20YkkKwCKf99ZVP-0" target="S7RAa20YkkKwCKf99ZVP-2" edge="1">
                    <mxGeometry relative="1" as="geometry">
                        <mxPoint x="480" y="330" as="sourcePoint"/>
                        <mxPoint x="640" y="330" as="targetPoint"/>
                    </mxGeometry>
                </mxCell>
                <mxCell id="S7RAa20YkkKwCKf99ZVP-4" value="N" style="resizable=0;html=1;align=right;verticalAlign=bottom;" parent="S7RAa20YkkKwCKf99ZVP-3" connectable="0" vertex="1">
                    <mxGeometry x="1" relative="1" as="geometry">
                        <mxPoint x="-10" y="-10" as="offset"/>
                    </mxGeometry>
                </mxCell>
                <mxCell id="S7RAa20YkkKwCKf99ZVP-5" value="Published" style="shape=rhombus;perimeter=rhombusPerimeter;whiteSpace=wrap;html=1;align=center;" parent="V-ujdH5ubDhLP4uPMUQp-1" vertex="1">
                    <mxGeometry x="320" y="490" width="120" height="60" as="geometry"/>
                </mxCell>
                <mxCell id="-4LK1hSoqcELT8QuGy0m-24" style="edgeStyle=none;html=1;exitX=1;exitY=1;exitDx=0;exitDy=0;entryX=0;entryY=0.5;entryDx=0;entryDy=0;endArrow=none;endFill=0;strokeWidth=2;" parent="V-ujdH5ubDhLP4uPMUQp-1" source="S7RAa20YkkKwCKf99ZVP-6" target="-4LK1hSoqcELT8QuGy0m-18" edge="1">
                    <mxGeometry relative="1" as="geometry"/>
                </mxCell>
                <mxCell id="-4LK1hSoqcELT8QuGy0m-25" style="edgeStyle=none;html=1;exitX=0.75;exitY=1;exitDx=0;exitDy=0;entryX=0;entryY=0;entryDx=0;entryDy=0;endArrow=none;endFill=0;strokeWidth=2;" parent="V-ujdH5ubDhLP4uPMUQp-1" source="S7RAa20YkkKwCKf99ZVP-6" target="-4LK1hSoqcELT8QuGy0m-19" edge="1">
                    <mxGeometry relative="1" as="geometry"/>
                </mxCell>
                <mxCell id="S7RAa20YkkKwCKf99ZVP-6" value="Publisher" style="whiteSpace=wrap;html=1;align=center;" parent="V-ujdH5ubDhLP4uPMUQp-1" vertex="1">
                    <mxGeometry x="330" y="620" width="100" height="40" as="geometry"/>
                </mxCell>
                <mxCell id="S7RAa20YkkKwCKf99ZVP-8" value="" style="shape=link;html=1;rounded=0;endArrow=none;endFill=0;strokeWidth=2;entryX=0.5;entryY=0;entryDx=0;entryDy=0;exitX=0.5;exitY=1;exitDx=0;exitDy=0;" parent="V-ujdH5ubDhLP4uPMUQp-1" source="S7RAa20YkkKwCKf99ZVP-0" target="S7RAa20YkkKwCKf99ZVP-5" edge="1">
                    <mxGeometry relative="1" as="geometry">
                        <mxPoint x="260" y="440" as="sourcePoint"/>
                        <mxPoint x="310" y="490" as="targetPoint"/>
                    </mxGeometry>
                </mxCell>
                <mxCell id="S7RAa20YkkKwCKf99ZVP-9" value="N" style="resizable=0;html=1;align=right;verticalAlign=bottom;" parent="S7RAa20YkkKwCKf99ZVP-8" connectable="0" vertex="1">
                    <mxGeometry x="1" relative="1" as="geometry">
                        <mxPoint x="-10" y="-10" as="offset"/>
                    </mxGeometry>
                </mxCell>
                <mxCell id="S7RAa20YkkKwCKf99ZVP-10" value="" style="endArrow=none;html=1;rounded=0;strokeWidth=2;exitX=0.5;exitY=0;exitDx=0;exitDy=0;entryX=0.5;entryY=1;entryDx=0;entryDy=0;" parent="V-ujdH5ubDhLP4uPMUQp-1" source="S7RAa20YkkKwCKf99ZVP-6" target="S7RAa20YkkKwCKf99ZVP-5" edge="1">
                    <mxGeometry relative="1" as="geometry">
                        <mxPoint x="510" y="410" as="sourcePoint"/>
                        <mxPoint x="430" y="640" as="targetPoint"/>
                    </mxGeometry>
                </mxCell>
                <mxCell id="S7RAa20YkkKwCKf99ZVP-11" value="1" style="resizable=0;html=1;align=right;verticalAlign=bottom;" parent="S7RAa20YkkKwCKf99ZVP-10" connectable="0" vertex="1">
                    <mxGeometry x="1" relative="1" as="geometry">
                        <mxPoint x="-10" y="20" as="offset"/>
                    </mxGeometry>
                </mxCell>
                <mxCell id="S7RAa20YkkKwCKf99ZVP-12" style="edgeStyle=none;html=1;exitX=0.5;exitY=0;exitDx=0;exitDy=0;endArrow=none;endFill=0;strokeWidth=2;entryX=0.5;entryY=1;entryDx=0;entryDy=0;" parent="V-ujdH5ubDhLP4uPMUQp-1" source="S7RAa20YkkKwCKf99ZVP-13" target="S7RAa20YkkKwCKf99ZVP-22" edge="1">
                    <mxGeometry relative="1" as="geometry">
                        <mxPoint x="-90" y="300" as="targetPoint"/>
                    </mxGeometry>
                </mxCell>
                <mxCell id="S7RAa20YkkKwCKf99ZVP-13" value="Stores" style="shape=rhombus;perimeter=rhombusPerimeter;whiteSpace=wrap;html=1;align=center;" parent="V-ujdH5ubDhLP4uPMUQp-1" vertex="1">
                    <mxGeometry x="-40" y="230" width="120" height="60" as="geometry"/>
                </mxCell>
                <mxCell id="J0xIwWuk8ZyFGMHgXiu2-16" style="edgeStyle=none;html=1;exitX=0.5;exitY=1;exitDx=0;exitDy=0;endArrow=none;endFill=0;strokeWidth=2;entryX=0.5;entryY=0;entryDx=0;entryDy=0;" parent="V-ujdH5ubDhLP4uPMUQp-1" source="S7RAa20YkkKwCKf99ZVP-14" target="mzPPIke4VZpRd02Qtkyj-16" edge="1">
                    <mxGeometry relative="1" as="geometry">
                        <mxPoint x="-100" y="310" as="targetPoint"/>
                    </mxGeometry>
                </mxCell>
                <mxCell id="S7RAa20YkkKwCKf99ZVP-14" value="Warehouse" style="whiteSpace=wrap;html=1;align=center;" parent="V-ujdH5ubDhLP4uPMUQp-1" vertex="1">
                    <mxGeometry x="-190" y="240" width="100" height="40" as="geometry"/>
                </mxCell>
                <mxCell id="S7RAa20YkkKwCKf99ZVP-16" value="" style="shape=link;html=1;rounded=0;endArrow=none;endFill=0;strokeWidth=2;entryX=1;entryY=0.5;entryDx=0;entryDy=0;exitX=0;exitY=0.5;exitDx=0;exitDy=0;" parent="V-ujdH5ubDhLP4uPMUQp-1" source="S7RAa20YkkKwCKf99ZVP-0" target="S7RAa20YkkKwCKf99ZVP-13" edge="1">
                    <mxGeometry relative="1" as="geometry">
                        <mxPoint x="260" y="639.9999999999998" as="sourcePoint"/>
                        <mxPoint x="330" y="490" as="targetPoint"/>
                    </mxGeometry>
                </mxCell>
                <mxCell id="S7RAa20YkkKwCKf99ZVP-17" value="N" style="resizable=0;html=1;align=right;verticalAlign=bottom;" parent="S7RAa20YkkKwCKf99ZVP-16" connectable="0" vertex="1">
                    <mxGeometry x="1" relative="1" as="geometry">
                        <mxPoint x="10" y="-10" as="offset"/>
                    </mxGeometry>
                </mxCell>
                <mxCell id="S7RAa20YkkKwCKf99ZVP-18" value="" style="endArrow=none;html=1;rounded=0;strokeWidth=2;exitX=1;exitY=0.5;exitDx=0;exitDy=0;entryX=0;entryY=0.5;entryDx=0;entryDy=0;" parent="V-ujdH5ubDhLP4uPMUQp-1" source="S7RAa20YkkKwCKf99ZVP-14" target="S7RAa20YkkKwCKf99ZVP-13" edge="1">
                    <mxGeometry relative="1" as="geometry">
                        <mxPoint x="40" y="190" as="sourcePoint"/>
                        <mxPoint x="-30" y="480" as="targetPoint"/>
                    </mxGeometry>
                </mxCell>
                <mxCell id="S7RAa20YkkKwCKf99ZVP-19" value="1" style="resizable=0;html=1;align=right;verticalAlign=bottom;" parent="S7RAa20YkkKwCKf99ZVP-18" connectable="0" vertex="1">
                    <mxGeometry x="1" relative="1" as="geometry">
                        <mxPoint x="-10" y="-10" as="offset"/>
                    </mxGeometry>
                </mxCell>
                <mxCell id="S7RAa20YkkKwCKf99ZVP-20" value="" style="endArrow=none;html=1;rounded=0;strokeWidth=2;entryX=1;entryY=0.5;entryDx=0;entryDy=0;exitX=0;exitY=0.5;exitDx=0;exitDy=0;" parent="V-ujdH5ubDhLP4uPMUQp-1" source="S7RAa20YkkKwCKf99ZVP-1" target="S7RAa20YkkKwCKf99ZVP-2" edge="1">
                    <mxGeometry relative="1" as="geometry">
                        <mxPoint x="670" y="410" as="sourcePoint"/>
                        <mxPoint x="830" y="410" as="targetPoint"/>
                    </mxGeometry>
                </mxCell>
                <mxCell id="S7RAa20YkkKwCKf99ZVP-21" value="M" style="resizable=0;html=1;align=right;verticalAlign=bottom;" parent="S7RAa20YkkKwCKf99ZVP-20" connectable="0" vertex="1">
                    <mxGeometry x="1" relative="1" as="geometry">
                        <mxPoint x="10" y="-10" as="offset"/>
                    </mxGeometry>
                </mxCell>
                <mxCell id="S7RAa20YkkKwCKf99ZVP-22" value="Quantity" style="ellipse;whiteSpace=wrap;html=1;align=center;" parent="V-ujdH5ubDhLP4uPMUQp-1" vertex="1">
                    <mxGeometry x="-30" y="120" width="100" height="40" as="geometry"/>
                </mxCell>
                <mxCell id="S7RAa20YkkKwCKf99ZVP-23" style="edgeStyle=none;html=1;exitX=0.5;exitY=0;exitDx=0;exitDy=0;entryX=0.5;entryY=1;entryDx=0;entryDy=0;endArrow=none;endFill=0;strokeWidth=2;" parent="V-ujdH5ubDhLP4uPMUQp-1" source="S7RAa20YkkKwCKf99ZVP-24" target="S7RAa20YkkKwCKf99ZVP-25" edge="1">
                    <mxGeometry relative="1" as="geometry"/>
                </mxCell>
                <mxCell id="S7RAa20YkkKwCKf99ZVP-24" value="ShoppingCart" style="shape=ext;margin=3;double=1;whiteSpace=wrap;html=1;align=center;" parent="V-ujdH5ubDhLP4uPMUQp-1" vertex="1">
                    <mxGeometry x="330" y="-330" width="100" height="40" as="geometry"/>
                </mxCell>
                <mxCell id="S7RAa20YkkKwCKf99ZVP-25" value="&lt;span style=&quot;border-bottom: 1px dotted&quot;&gt;CartID&lt;/span&gt;" style="ellipse;whiteSpace=wrap;html=1;align=center;" parent="V-ujdH5ubDhLP4uPMUQp-1" vertex="1">
                    <mxGeometry x="330" y="-390" width="100" height="40" as="geometry"/>
                </mxCell>
                <mxCell id="S7RAa20YkkKwCKf99ZVP-26" value="IsShopping" style="shape=rhombus;double=1;perimeter=rhombusPerimeter;whiteSpace=wrap;html=1;align=center;" parent="V-ujdH5ubDhLP4uPMUQp-1" vertex="1">
                    <mxGeometry x="560" y="-340" width="120" height="60" as="geometry"/>
                </mxCell>
                <mxCell id="S7RAa20YkkKwCKf99ZVP-27" style="edgeStyle=none;html=1;exitX=0.5;exitY=0;exitDx=0;exitDy=0;entryX=0.5;entryY=1;entryDx=0;entryDy=0;endArrow=none;endFill=0;strokeWidth=2;" parent="V-ujdH5ubDhLP4uPMUQp-1" source="S7RAa20YkkKwCKf99ZVP-28" target="S7RAa20YkkKwCKf99ZVP-33" edge="1">
                    <mxGeometry relative="1" as="geometry"/>
                </mxCell>
                <mxCell id="BKOfNPU5SKijA-KrM8a2-29" style="edgeStyle=none;html=1;exitX=1;exitY=0.5;exitDx=0;exitDy=0;entryX=0;entryY=0.5;entryDx=0;entryDy=0;endArrow=none;endFill=0;strokeWidth=2;" parent="V-ujdH5ubDhLP4uPMUQp-1" source="S7RAa20YkkKwCKf99ZVP-28" target="BKOfNPU5SKijA-KrM8a2-7" edge="1">
                    <mxGeometry relative="1" as="geometry"/>
                </mxCell>
                <mxCell id="BKOfNPU5SKijA-KrM8a2-30" style="edgeStyle=none;html=1;exitX=0.25;exitY=1;exitDx=0;exitDy=0;entryX=0.5;entryY=0;entryDx=0;entryDy=0;endArrow=none;endFill=0;strokeWidth=2;" parent="V-ujdH5ubDhLP4uPMUQp-1" source="S7RAa20YkkKwCKf99ZVP-28" target="BKOfNPU5SKijA-KrM8a2-19" edge="1">
                    <mxGeometry relative="1" as="geometry"/>
                </mxCell>
                <mxCell id="BKOfNPU5SKijA-KrM8a2-31" style="edgeStyle=none;html=1;exitX=0.75;exitY=1;exitDx=0;exitDy=0;entryX=0.5;entryY=0;entryDx=0;entryDy=0;endArrow=none;endFill=0;strokeWidth=2;" parent="V-ujdH5ubDhLP4uPMUQp-1" source="S7RAa20YkkKwCKf99ZVP-28" target="BKOfNPU5SKijA-KrM8a2-8" edge="1">
                    <mxGeometry relative="1" as="geometry"/>
                </mxCell>
                <mxCell id="S7RAa20YkkKwCKf99ZVP-28" value="Customer" style="whiteSpace=wrap;html=1;align=center;" parent="V-ujdH5ubDhLP4uPMUQp-1" vertex="1">
                    <mxGeometry x="800" y="-330" width="100" height="40" as="geometry"/>
                </mxCell>
                <mxCell id="S7RAa20YkkKwCKf99ZVP-29" value="" style="endArrow=none;html=1;rounded=0;strokeWidth=2;entryX=1;entryY=0.5;entryDx=0;entryDy=0;exitX=0;exitY=0.5;exitDx=0;exitDy=0;" parent="V-ujdH5ubDhLP4uPMUQp-1" source="S7RAa20YkkKwCKf99ZVP-28" target="S7RAa20YkkKwCKf99ZVP-26" edge="1">
                    <mxGeometry relative="1" as="geometry">
                        <mxPoint x="595" y="-210" as="sourcePoint"/>
                        <mxPoint x="755" y="-210" as="targetPoint"/>
                    </mxGeometry>
                </mxCell>
                <mxCell id="S7RAa20YkkKwCKf99ZVP-30" value="1" style="resizable=0;html=1;align=right;verticalAlign=bottom;" parent="S7RAa20YkkKwCKf99ZVP-29" connectable="0" vertex="1">
                    <mxGeometry x="1" relative="1" as="geometry">
                        <mxPoint x="10" y="-10" as="offset"/>
                    </mxGeometry>
                </mxCell>
                <mxCell id="S7RAa20YkkKwCKf99ZVP-31" value="" style="shape=link;html=1;rounded=0;endArrow=none;endFill=0;strokeWidth=2;exitX=1;exitY=0.5;exitDx=0;exitDy=0;entryX=0;entryY=0.5;entryDx=0;entryDy=0;" parent="V-ujdH5ubDhLP4uPMUQp-1" source="S7RAa20YkkKwCKf99ZVP-24" target="S7RAa20YkkKwCKf99ZVP-26" edge="1">
                    <mxGeometry relative="1" as="geometry">
                        <mxPoint x="500" y="-310" as="sourcePoint"/>
                        <mxPoint x="490" y="-310.0000000000002" as="targetPoint"/>
                    </mxGeometry>
                </mxCell>
                <mxCell id="S7RAa20YkkKwCKf99ZVP-32" value="N" style="resizable=0;html=1;align=right;verticalAlign=bottom;" parent="S7RAa20YkkKwCKf99ZVP-31" connectable="0" vertex="1">
                    <mxGeometry x="1" relative="1" as="geometry">
                        <mxPoint y="-10" as="offset"/>
                    </mxGeometry>
                </mxCell>
                <mxCell id="S7RAa20YkkKwCKf99ZVP-33" value="CustomerID" style="ellipse;whiteSpace=wrap;html=1;align=center;fontStyle=4;" parent="V-ujdH5ubDhLP4uPMUQp-1" vertex="1">
                    <mxGeometry x="800" y="-390" width="100" height="40" as="geometry"/>
                </mxCell>
                <mxCell id="S7RAa20YkkKwCKf99ZVP-34" style="edgeStyle=none;html=1;exitX=1;exitY=0.5;exitDx=0;exitDy=0;entryX=0;entryY=0.5;entryDx=0;entryDy=0;endArrow=none;endFill=0;strokeWidth=2;" parent="V-ujdH5ubDhLP4uPMUQp-1" source="S7RAa20YkkKwCKf99ZVP-35" target="S7RAa20YkkKwCKf99ZVP-24" edge="1">
                    <mxGeometry relative="1" as="geometry"/>
                </mxCell>
                <mxCell id="S7RAa20YkkKwCKf99ZVP-35" value="PurchaseDate" style="ellipse;whiteSpace=wrap;html=1;align=center;" parent="V-ujdH5ubDhLP4uPMUQp-1" vertex="1">
                    <mxGeometry x="210" y="-330" width="100" height="40" as="geometry"/>
                </mxCell>
                <mxCell id="mzPPIke4VZpRd02Qtkyj-21" style="edgeStyle=none;html=1;exitX=0;exitY=0.5;exitDx=0;exitDy=0;entryX=1;entryY=0.5;entryDx=0;entryDy=0;endArrow=none;endFill=0;strokeWidth=2;" parent="V-ujdH5ubDhLP4uPMUQp-1" source="S7RAa20YkkKwCKf99ZVP-36" target="mzPPIke4VZpRd02Qtkyj-20" edge="1">
                    <mxGeometry relative="1" as="geometry"/>
                </mxCell>
                <mxCell id="S7RAa20YkkKwCKf99ZVP-36" value="Contains" style="shape=rhombus;perimeter=rhombusPerimeter;whiteSpace=wrap;html=1;align=center;" parent="V-ujdH5ubDhLP4uPMUQp-1" vertex="1">
                    <mxGeometry x="320" y="-90" width="120" height="60" as="geometry"/>
                </mxCell>
                <mxCell id="S7RAa20YkkKwCKf99ZVP-40" value="" style="endArrow=none;html=1;rounded=0;strokeWidth=2;exitX=0.5;exitY=0;exitDx=0;exitDy=0;entryX=0.5;entryY=1;entryDx=0;entryDy=0;" parent="V-ujdH5ubDhLP4uPMUQp-1" source="S7RAa20YkkKwCKf99ZVP-0" target="S7RAa20YkkKwCKf99ZVP-36" edge="1">
                    <mxGeometry relative="1" as="geometry">
                        <mxPoint x="380.0000000000002" y="230" as="sourcePoint"/>
                        <mxPoint x="540" y="140" as="targetPoint"/>
                    </mxGeometry>
                </mxCell>
                <mxCell id="S7RAa20YkkKwCKf99ZVP-41" value="M" style="resizable=0;html=1;align=right;verticalAlign=bottom;" parent="S7RAa20YkkKwCKf99ZVP-40" connectable="0" vertex="1">
                    <mxGeometry x="1" relative="1" as="geometry">
                        <mxPoint x="-10" y="20" as="offset"/>
                    </mxGeometry>
                </mxCell>
                <mxCell id="J0xIwWuk8ZyFGMHgXiu2-0" style="edgeStyle=none;html=1;exitX=0;exitY=1;exitDx=0;exitDy=0;entryX=0.5;entryY=0;entryDx=0;entryDy=0;endArrow=none;endFill=0;strokeWidth=2;" parent="V-ujdH5ubDhLP4uPMUQp-1" source="S7RAa20YkkKwCKf99ZVP-14" target="J0xIwWuk8ZyFGMHgXiu2-6" edge="1">
                    <mxGeometry relative="1" as="geometry">
                        <mxPoint x="-190" y="430" as="sourcePoint"/>
                    </mxGeometry>
                </mxCell>
                <mxCell id="J0xIwWuk8ZyFGMHgXiu2-1" style="edgeStyle=none;html=1;exitX=0;exitY=0.5;exitDx=0;exitDy=0;entryX=1;entryY=0.5;entryDx=0;entryDy=0;endArrow=none;endFill=0;strokeWidth=2;" parent="V-ujdH5ubDhLP4uPMUQp-1" source="S7RAa20YkkKwCKf99ZVP-14" target="J0xIwWuk8ZyFGMHgXiu2-4" edge="1">
                    <mxGeometry relative="1" as="geometry">
                        <mxPoint x="-240" y="410" as="sourcePoint"/>
                    </mxGeometry>
                </mxCell>
                <mxCell id="J0xIwWuk8ZyFGMHgXiu2-4" value="WarehouseID" style="ellipse;whiteSpace=wrap;html=1;align=center;fontStyle=4;" parent="V-ujdH5ubDhLP4uPMUQp-1" vertex="1">
                    <mxGeometry x="-340" y="240" width="100" height="40" as="geometry"/>
                </mxCell>
                <mxCell id="J0xIwWuk8ZyFGMHgXiu2-5" value="" style="group" parent="V-ujdH5ubDhLP4uPMUQp-1" vertex="1" connectable="0">
                    <mxGeometry x="-520" y="390" width="340" height="100" as="geometry"/>
                </mxCell>
                <mxCell id="J0xIwWuk8ZyFGMHgXiu2-6" value="Address" style="ellipse;whiteSpace=wrap;html=1;align=center;" parent="J0xIwWuk8ZyFGMHgXiu2-5" vertex="1">
                    <mxGeometry x="120" width="100" height="40" as="geometry"/>
                </mxCell>
                <mxCell id="J0xIwWuk8ZyFGMHgXiu2-7" value="City" style="ellipse;whiteSpace=wrap;html=1;align=center;" parent="J0xIwWuk8ZyFGMHgXiu2-5" vertex="1">
                    <mxGeometry width="100" height="40" as="geometry"/>
                </mxCell>
                <mxCell id="J0xIwWuk8ZyFGMHgXiu2-8" style="edgeStyle=none;html=1;exitX=0;exitY=0.5;exitDx=0;exitDy=0;entryX=1;entryY=0.5;entryDx=0;entryDy=0;endArrow=none;endFill=0;strokeWidth=2;" parent="J0xIwWuk8ZyFGMHgXiu2-5" source="J0xIwWuk8ZyFGMHgXiu2-6" target="J0xIwWuk8ZyFGMHgXiu2-7" edge="1">
                    <mxGeometry relative="1" as="geometry"/>
                </mxCell>
                <mxCell id="J0xIwWuk8ZyFGMHgXiu2-9" value="Street" style="ellipse;whiteSpace=wrap;html=1;align=center;" parent="J0xIwWuk8ZyFGMHgXiu2-5" vertex="1">
                    <mxGeometry x="50" y="60" width="100" height="40" as="geometry"/>
                </mxCell>
                <mxCell id="J0xIwWuk8ZyFGMHgXiu2-10" style="edgeStyle=none;html=1;exitX=0;exitY=1;exitDx=0;exitDy=0;entryX=0.728;entryY=-0.01;entryDx=0;entryDy=0;entryPerimeter=0;endArrow=none;endFill=0;strokeWidth=2;" parent="J0xIwWuk8ZyFGMHgXiu2-5" source="J0xIwWuk8ZyFGMHgXiu2-6" target="J0xIwWuk8ZyFGMHgXiu2-9" edge="1">
                    <mxGeometry relative="1" as="geometry"/>
                </mxCell>
                <mxCell id="J0xIwWuk8ZyFGMHgXiu2-11" value="Number" style="ellipse;whiteSpace=wrap;html=1;align=center;" parent="J0xIwWuk8ZyFGMHgXiu2-5" vertex="1">
                    <mxGeometry x="240" width="100" height="40" as="geometry"/>
                </mxCell>
                <mxCell id="J0xIwWuk8ZyFGMHgXiu2-12" style="edgeStyle=none;html=1;exitX=1;exitY=0.5;exitDx=0;exitDy=0;entryX=0;entryY=0.5;entryDx=0;entryDy=0;endArrow=none;endFill=0;strokeWidth=2;" parent="J0xIwWuk8ZyFGMHgXiu2-5" source="J0xIwWuk8ZyFGMHgXiu2-6" target="J0xIwWuk8ZyFGMHgXiu2-11" edge="1">
                    <mxGeometry relative="1" as="geometry"/>
                </mxCell>
                <mxCell id="J0xIwWuk8ZyFGMHgXiu2-13" value="Postcode" style="ellipse;whiteSpace=wrap;html=1;align=center;" parent="J0xIwWuk8ZyFGMHgXiu2-5" vertex="1">
                    <mxGeometry x="190" y="60" width="100" height="40" as="geometry"/>
                </mxCell>
                <mxCell id="J0xIwWuk8ZyFGMHgXiu2-14" style="edgeStyle=none;html=1;exitX=1;exitY=1;exitDx=0;exitDy=0;entryX=0.272;entryY=0.01;entryDx=0;entryDy=0;entryPerimeter=0;endArrow=none;endFill=0;strokeWidth=2;" parent="J0xIwWuk8ZyFGMHgXiu2-5" source="J0xIwWuk8ZyFGMHgXiu2-6" target="J0xIwWuk8ZyFGMHgXiu2-13" edge="1">
                    <mxGeometry relative="1" as="geometry"/>
                </mxCell>
                <mxCell id="-4LK1hSoqcELT8QuGy0m-0" style="edgeStyle=none;html=1;exitX=0;exitY=0.5;exitDx=0;exitDy=0;entryX=1;entryY=0.5;entryDx=0;entryDy=0;endArrow=none;endFill=0;strokeWidth=2;" parent="V-ujdH5ubDhLP4uPMUQp-1" source="S7RAa20YkkKwCKf99ZVP-6" target="-4LK1hSoqcELT8QuGy0m-6" edge="1">
                    <mxGeometry relative="1" as="geometry">
                        <mxPoint x="320" y="640" as="sourcePoint"/>
                    </mxGeometry>
                </mxCell>
                <mxCell id="-4LK1hSoqcELT8QuGy0m-1" style="edgeStyle=none;html=1;exitX=0;exitY=1;exitDx=0;exitDy=0;entryX=0.5;entryY=0;entryDx=0;entryDy=0;endArrow=none;endFill=0;strokeWidth=2;" parent="V-ujdH5ubDhLP4uPMUQp-1" source="S7RAa20YkkKwCKf99ZVP-6" target="-4LK1hSoqcELT8QuGy0m-9" edge="1">
                    <mxGeometry relative="1" as="geometry">
                        <mxPoint x="800" y="730" as="sourcePoint"/>
                    </mxGeometry>
                </mxCell>
                <mxCell id="-4LK1hSoqcELT8QuGy0m-6" value="PublisherID" style="ellipse;whiteSpace=wrap;html=1;align=center;fontStyle=4;" parent="V-ujdH5ubDhLP4uPMUQp-1" vertex="1">
                    <mxGeometry x="180" y="620" width="100" height="40" as="geometry"/>
                </mxCell>
                <mxCell id="-4LK1hSoqcELT8QuGy0m-22" style="edgeStyle=none;html=1;exitX=0.5;exitY=0;exitDx=0;exitDy=0;entryX=0.5;entryY=1;entryDx=0;entryDy=0;endArrow=none;endFill=0;strokeWidth=2;" parent="V-ujdH5ubDhLP4uPMUQp-1" source="-4LK1hSoqcELT8QuGy0m-7" target="S7RAa20YkkKwCKf99ZVP-6" edge="1">
                    <mxGeometry relative="1" as="geometry"/>
                </mxCell>
                <mxCell id="-4LK1hSoqcELT8QuGy0m-7" value="Name" style="ellipse;whiteSpace=wrap;html=1;align=center;" parent="V-ujdH5ubDhLP4uPMUQp-1" vertex="1">
                    <mxGeometry x="330" y="720" width="100" height="40" as="geometry"/>
                </mxCell>
                <mxCell id="-4LK1hSoqcELT8QuGy0m-8" value="" style="group" parent="V-ujdH5ubDhLP4uPMUQp-1" vertex="1" connectable="0">
                    <mxGeometry x="30" y="790" width="340" height="100" as="geometry"/>
                </mxCell>
                <mxCell id="-4LK1hSoqcELT8QuGy0m-9" value="Address" style="ellipse;whiteSpace=wrap;html=1;align=center;" parent="-4LK1hSoqcELT8QuGy0m-8" vertex="1">
                    <mxGeometry x="120" width="100" height="40" as="geometry"/>
                </mxCell>
                <mxCell id="-4LK1hSoqcELT8QuGy0m-10" value="City" style="ellipse;whiteSpace=wrap;html=1;align=center;" parent="-4LK1hSoqcELT8QuGy0m-8" vertex="1">
                    <mxGeometry width="100" height="40" as="geometry"/>
                </mxCell>
                <mxCell id="-4LK1hSoqcELT8QuGy0m-11" style="edgeStyle=none;html=1;exitX=0;exitY=0.5;exitDx=0;exitDy=0;entryX=1;entryY=0.5;entryDx=0;entryDy=0;endArrow=none;endFill=0;strokeWidth=2;" parent="-4LK1hSoqcELT8QuGy0m-8" source="-4LK1hSoqcELT8QuGy0m-9" target="-4LK1hSoqcELT8QuGy0m-10" edge="1">
                    <mxGeometry relative="1" as="geometry"/>
                </mxCell>
                <mxCell id="-4LK1hSoqcELT8QuGy0m-12" value="Street" style="ellipse;whiteSpace=wrap;html=1;align=center;" parent="-4LK1hSoqcELT8QuGy0m-8" vertex="1">
                    <mxGeometry x="50" y="60" width="100" height="40" as="geometry"/>
                </mxCell>
                <mxCell id="-4LK1hSoqcELT8QuGy0m-13" style="edgeStyle=none;html=1;exitX=0;exitY=1;exitDx=0;exitDy=0;entryX=0.728;entryY=-0.01;entryDx=0;entryDy=0;entryPerimeter=0;endArrow=none;endFill=0;strokeWidth=2;" parent="-4LK1hSoqcELT8QuGy0m-8" source="-4LK1hSoqcELT8QuGy0m-9" target="-4LK1hSoqcELT8QuGy0m-12" edge="1">
                    <mxGeometry relative="1" as="geometry"/>
                </mxCell>
                <mxCell id="-4LK1hSoqcELT8QuGy0m-14" value="Number" style="ellipse;whiteSpace=wrap;html=1;align=center;" parent="-4LK1hSoqcELT8QuGy0m-8" vertex="1">
                    <mxGeometry x="240" width="100" height="40" as="geometry"/>
                </mxCell>
                <mxCell id="-4LK1hSoqcELT8QuGy0m-15" style="edgeStyle=none;html=1;exitX=1;exitY=0.5;exitDx=0;exitDy=0;entryX=0;entryY=0.5;entryDx=0;entryDy=0;endArrow=none;endFill=0;strokeWidth=2;" parent="-4LK1hSoqcELT8QuGy0m-8" source="-4LK1hSoqcELT8QuGy0m-9" target="-4LK1hSoqcELT8QuGy0m-14" edge="1">
                    <mxGeometry relative="1" as="geometry"/>
                </mxCell>
                <mxCell id="-4LK1hSoqcELT8QuGy0m-16" value="Postcode" style="ellipse;whiteSpace=wrap;html=1;align=center;" parent="-4LK1hSoqcELT8QuGy0m-8" vertex="1">
                    <mxGeometry x="190" y="60" width="100" height="40" as="geometry"/>
                </mxCell>
                <mxCell id="-4LK1hSoqcELT8QuGy0m-17" style="edgeStyle=none;html=1;exitX=1;exitY=1;exitDx=0;exitDy=0;entryX=0.272;entryY=0.01;entryDx=0;entryDy=0;entryPerimeter=0;endArrow=none;endFill=0;strokeWidth=2;" parent="-4LK1hSoqcELT8QuGy0m-8" source="-4LK1hSoqcELT8QuGy0m-9" target="-4LK1hSoqcELT8QuGy0m-16" edge="1">
                    <mxGeometry relative="1" as="geometry"/>
                </mxCell>
                <mxCell id="-4LK1hSoqcELT8QuGy0m-18" value="PhoneNumber" style="ellipse;shape=doubleEllipse;margin=3;whiteSpace=wrap;html=1;align=center;" parent="V-ujdH5ubDhLP4uPMUQp-1" vertex="1">
                    <mxGeometry x="520" y="680" width="100" height="40" as="geometry"/>
                </mxCell>
                <mxCell id="-4LK1hSoqcELT8QuGy0m-19" value="WebsiteURL" style="ellipse;whiteSpace=wrap;html=1;align=center;" parent="V-ujdH5ubDhLP4uPMUQp-1" vertex="1">
                    <mxGeometry x="440" y="720" width="100" height="40" as="geometry"/>
                </mxCell>
                <mxCell id="VC3I_TWz7A7I9cI5uKnV-0" style="edgeStyle=none;html=1;exitX=0.5;exitY=0;exitDx=0;exitDy=0;entryX=0.5;entryY=1;entryDx=0;entryDy=0;endArrow=none;endFill=0;strokeWidth=2;" parent="V-ujdH5ubDhLP4uPMUQp-1" source="S7RAa20YkkKwCKf99ZVP-1" target="VC3I_TWz7A7I9cI5uKnV-10" edge="1">
                    <mxGeometry relative="1" as="geometry">
                        <mxPoint x="1020" y="150" as="sourcePoint"/>
                    </mxGeometry>
                </mxCell>
                <mxCell id="VC3I_TWz7A7I9cI5uKnV-12" style="edgeStyle=none;html=1;exitX=0;exitY=0.5;exitDx=0;exitDy=0;entryX=1;entryY=0.5;entryDx=0;entryDy=0;endArrow=none;endFill=0;strokeWidth=2;" parent="V-ujdH5ubDhLP4uPMUQp-1" source="VC3I_TWz7A7I9cI5uKnV-4" target="S7RAa20YkkKwCKf99ZVP-1" edge="1">
                    <mxGeometry relative="1" as="geometry"/>
                </mxCell>
                <mxCell id="VC3I_TWz7A7I9cI5uKnV-4" value="WriterID" style="ellipse;whiteSpace=wrap;html=1;align=center;fontStyle=4;" parent="V-ujdH5ubDhLP4uPMUQp-1" vertex="1">
                    <mxGeometry x="1010" y="240" width="100" height="40" as="geometry"/>
                </mxCell>
                <mxCell id="VC3I_TWz7A7I9cI5uKnV-5" value="" style="group" parent="V-ujdH5ubDhLP4uPMUQp-1" vertex="1" connectable="0">
                    <mxGeometry x="820" y="90.00000000000023" width="200" height="120" as="geometry"/>
                </mxCell>
                <mxCell id="VC3I_TWz7A7I9cI5uKnV-6" value="FirstName" style="ellipse;whiteSpace=wrap;html=1;align=center;" parent="VC3I_TWz7A7I9cI5uKnV-5" vertex="1">
                    <mxGeometry width="100" height="40" as="geometry"/>
                </mxCell>
                <mxCell id="VC3I_TWz7A7I9cI5uKnV-7" value="LastName" style="ellipse;whiteSpace=wrap;html=1;align=center;" parent="VC3I_TWz7A7I9cI5uKnV-5" vertex="1">
                    <mxGeometry x="100" width="100" height="40" as="geometry"/>
                </mxCell>
                <mxCell id="VC3I_TWz7A7I9cI5uKnV-8" style="edgeStyle=none;html=1;exitX=0;exitY=0;exitDx=0;exitDy=0;entryX=0.5;entryY=1;entryDx=0;entryDy=0;endArrow=none;endFill=0;strokeWidth=2;" parent="VC3I_TWz7A7I9cI5uKnV-5" source="VC3I_TWz7A7I9cI5uKnV-10" target="VC3I_TWz7A7I9cI5uKnV-6" edge="1">
                    <mxGeometry relative="1" as="geometry"/>
                </mxCell>
                <mxCell id="VC3I_TWz7A7I9cI5uKnV-9" style="edgeStyle=none;html=1;exitX=1;exitY=0;exitDx=0;exitDy=0;entryX=0.5;entryY=1;entryDx=0;entryDy=0;endArrow=none;endFill=0;strokeWidth=2;" parent="VC3I_TWz7A7I9cI5uKnV-5" source="VC3I_TWz7A7I9cI5uKnV-10" target="VC3I_TWz7A7I9cI5uKnV-7" edge="1">
                    <mxGeometry relative="1" as="geometry"/>
                </mxCell>
                <mxCell id="VC3I_TWz7A7I9cI5uKnV-10" value="FullName" style="ellipse;whiteSpace=wrap;html=1;align=center;" parent="VC3I_TWz7A7I9cI5uKnV-5" vertex="1">
                    <mxGeometry x="50" y="80" width="100" height="40" as="geometry"/>
                </mxCell>
                <mxCell id="VC3I_TWz7A7I9cI5uKnV-13" style="edgeStyle=none;html=1;exitX=0.5;exitY=0;exitDx=0;exitDy=0;entryX=0.5;entryY=1;entryDx=0;entryDy=0;endArrow=none;endFill=0;strokeWidth=2;" parent="V-ujdH5ubDhLP4uPMUQp-1" source="VC3I_TWz7A7I9cI5uKnV-11" target="S7RAa20YkkKwCKf99ZVP-1" edge="1">
                    <mxGeometry relative="1" as="geometry"/>
                </mxCell>
                <mxCell id="VC3I_TWz7A7I9cI5uKnV-11" value="Email" style="ellipse;whiteSpace=wrap;html=1;align=center;" parent="V-ujdH5ubDhLP4uPMUQp-1" vertex="1">
                    <mxGeometry x="870" y="320" width="100" height="40" as="geometry"/>
                </mxCell>
                <mxCell id="BKOfNPU5SKijA-KrM8a2-7" value="FathersName" style="ellipse;whiteSpace=wrap;html=1;align=center;" parent="V-ujdH5ubDhLP4uPMUQp-1" vertex="1">
                    <mxGeometry x="950" y="-330" width="100" height="40" as="geometry"/>
                </mxCell>
                <mxCell id="BKOfNPU5SKijA-KrM8a2-8" value="PhoneNumber" style="ellipse;shape=doubleEllipse;margin=3;whiteSpace=wrap;html=1;align=center;" parent="V-ujdH5ubDhLP4uPMUQp-1" vertex="1">
                    <mxGeometry x="870" y="-220" width="100" height="40" as="geometry"/>
                </mxCell>
                <mxCell id="BKOfNPU5SKijA-KrM8a2-9" value="" style="group" parent="V-ujdH5ubDhLP4uPMUQp-1" vertex="1" connectable="0">
                    <mxGeometry x="990" y="-250" width="340" height="100" as="geometry"/>
                </mxCell>
                <mxCell id="BKOfNPU5SKijA-KrM8a2-10" value="Address" style="ellipse;whiteSpace=wrap;html=1;align=center;" parent="BKOfNPU5SKijA-KrM8a2-9" vertex="1">
                    <mxGeometry x="120" width="100" height="40" as="geometry"/>
                </mxCell>
                <mxCell id="BKOfNPU5SKijA-KrM8a2-11" value="City" style="ellipse;whiteSpace=wrap;html=1;align=center;" parent="BKOfNPU5SKijA-KrM8a2-9" vertex="1">
                    <mxGeometry width="100" height="40" as="geometry"/>
                </mxCell>
                <mxCell id="BKOfNPU5SKijA-KrM8a2-12" style="edgeStyle=none;html=1;exitX=0;exitY=0.5;exitDx=0;exitDy=0;entryX=1;entryY=0.5;entryDx=0;entryDy=0;endArrow=none;endFill=0;strokeWidth=2;" parent="BKOfNPU5SKijA-KrM8a2-9" source="BKOfNPU5SKijA-KrM8a2-10" target="BKOfNPU5SKijA-KrM8a2-11" edge="1">
                    <mxGeometry relative="1" as="geometry"/>
                </mxCell>
                <mxCell id="BKOfNPU5SKijA-KrM8a2-13" value="Street" style="ellipse;whiteSpace=wrap;html=1;align=center;" parent="BKOfNPU5SKijA-KrM8a2-9" vertex="1">
                    <mxGeometry x="50" y="60" width="100" height="40" as="geometry"/>
                </mxCell>
                <mxCell id="BKOfNPU5SKijA-KrM8a2-14" style="edgeStyle=none;html=1;exitX=0;exitY=1;exitDx=0;exitDy=0;entryX=0.728;entryY=-0.01;entryDx=0;entryDy=0;entryPerimeter=0;endArrow=none;endFill=0;strokeWidth=2;" parent="BKOfNPU5SKijA-KrM8a2-9" source="BKOfNPU5SKijA-KrM8a2-10" target="BKOfNPU5SKijA-KrM8a2-13" edge="1">
                    <mxGeometry relative="1" as="geometry"/>
                </mxCell>
                <mxCell id="BKOfNPU5SKijA-KrM8a2-15" value="Number" style="ellipse;whiteSpace=wrap;html=1;align=center;" parent="BKOfNPU5SKijA-KrM8a2-9" vertex="1">
                    <mxGeometry x="240" width="100" height="40" as="geometry"/>
                </mxCell>
                <mxCell id="BKOfNPU5SKijA-KrM8a2-16" style="edgeStyle=none;html=1;exitX=1;exitY=0.5;exitDx=0;exitDy=0;entryX=0;entryY=0.5;entryDx=0;entryDy=0;endArrow=none;endFill=0;strokeWidth=2;" parent="BKOfNPU5SKijA-KrM8a2-9" source="BKOfNPU5SKijA-KrM8a2-10" target="BKOfNPU5SKijA-KrM8a2-15" edge="1">
                    <mxGeometry relative="1" as="geometry"/>
                </mxCell>
                <mxCell id="BKOfNPU5SKijA-KrM8a2-17" value="Postcode" style="ellipse;whiteSpace=wrap;html=1;align=center;" parent="BKOfNPU5SKijA-KrM8a2-9" vertex="1">
                    <mxGeometry x="190" y="60" width="100" height="40" as="geometry"/>
                </mxCell>
                <mxCell id="BKOfNPU5SKijA-KrM8a2-18" style="edgeStyle=none;html=1;exitX=1;exitY=1;exitDx=0;exitDy=0;entryX=0.272;entryY=0.01;entryDx=0;entryDy=0;entryPerimeter=0;endArrow=none;endFill=0;strokeWidth=2;" parent="BKOfNPU5SKijA-KrM8a2-9" source="BKOfNPU5SKijA-KrM8a2-10" target="BKOfNPU5SKijA-KrM8a2-17" edge="1">
                    <mxGeometry relative="1" as="geometry"/>
                </mxCell>
                <mxCell id="BKOfNPU5SKijA-KrM8a2-19" value="Email" style="ellipse;whiteSpace=wrap;html=1;align=center;" parent="V-ujdH5ubDhLP4uPMUQp-1" vertex="1">
                    <mxGeometry x="750" y="-220" width="100" height="40" as="geometry"/>
                </mxCell>
                <mxCell id="BKOfNPU5SKijA-KrM8a2-20" value="" style="group" parent="V-ujdH5ubDhLP4uPMUQp-1" vertex="1" connectable="0">
                    <mxGeometry x="890" y="-500" width="200" height="120" as="geometry"/>
                </mxCell>
                <mxCell id="BKOfNPU5SKijA-KrM8a2-21" value="FirstName" style="ellipse;whiteSpace=wrap;html=1;align=center;" parent="BKOfNPU5SKijA-KrM8a2-20" vertex="1">
                    <mxGeometry width="100" height="40" as="geometry"/>
                </mxCell>
                <mxCell id="BKOfNPU5SKijA-KrM8a2-22" value="LastName" style="ellipse;whiteSpace=wrap;html=1;align=center;" parent="BKOfNPU5SKijA-KrM8a2-20" vertex="1">
                    <mxGeometry x="100" width="100" height="40" as="geometry"/>
                </mxCell>
                <mxCell id="BKOfNPU5SKijA-KrM8a2-23" style="edgeStyle=none;html=1;exitX=0;exitY=0;exitDx=0;exitDy=0;entryX=0.5;entryY=1;entryDx=0;entryDy=0;endArrow=none;endFill=0;strokeWidth=2;" parent="BKOfNPU5SKijA-KrM8a2-20" source="BKOfNPU5SKijA-KrM8a2-25" target="BKOfNPU5SKijA-KrM8a2-21" edge="1">
                    <mxGeometry relative="1" as="geometry"/>
                </mxCell>
                <mxCell id="BKOfNPU5SKijA-KrM8a2-24" style="edgeStyle=none;html=1;exitX=1;exitY=0;exitDx=0;exitDy=0;entryX=0.5;entryY=1;entryDx=0;entryDy=0;endArrow=none;endFill=0;strokeWidth=2;" parent="BKOfNPU5SKijA-KrM8a2-20" source="BKOfNPU5SKijA-KrM8a2-25" target="BKOfNPU5SKijA-KrM8a2-22" edge="1">
                    <mxGeometry relative="1" as="geometry"/>
                </mxCell>
                <mxCell id="BKOfNPU5SKijA-KrM8a2-25" value="FullName" style="ellipse;whiteSpace=wrap;html=1;align=center;" parent="BKOfNPU5SKijA-KrM8a2-20" vertex="1">
                    <mxGeometry x="50" y="80" width="100" height="40" as="geometry"/>
                </mxCell>
                <mxCell id="BKOfNPU5SKijA-KrM8a2-27" style="edgeStyle=none;html=1;exitX=0;exitY=0;exitDx=0;exitDy=0;entryX=1;entryY=1;entryDx=0;entryDy=0;endArrow=none;endFill=0;strokeWidth=2;" parent="V-ujdH5ubDhLP4uPMUQp-1" source="BKOfNPU5SKijA-KrM8a2-10" target="S7RAa20YkkKwCKf99ZVP-28" edge="1">
                    <mxGeometry relative="1" as="geometry"/>
                </mxCell>
                <mxCell id="BKOfNPU5SKijA-KrM8a2-28" style="edgeStyle=none;html=1;exitX=0;exitY=1;exitDx=0;exitDy=0;entryX=1;entryY=0;entryDx=0;entryDy=0;endArrow=none;endFill=0;strokeWidth=2;" parent="V-ujdH5ubDhLP4uPMUQp-1" source="BKOfNPU5SKijA-KrM8a2-25" target="S7RAa20YkkKwCKf99ZVP-28" edge="1">
                    <mxGeometry relative="1" as="geometry"/>
                </mxCell>
                <mxCell id="mzPPIke4VZpRd02Qtkyj-6" value="BookID" style="ellipse;whiteSpace=wrap;html=1;align=center;fontStyle=4;" parent="V-ujdH5ubDhLP4uPMUQp-1" vertex="1">
                    <mxGeometry x="180" y="210" width="100" height="40" as="geometry"/>
                </mxCell>
                <mxCell id="mzPPIke4VZpRd02Qtkyj-7" value="Title" style="ellipse;whiteSpace=wrap;html=1;align=center;" parent="V-ujdH5ubDhLP4uPMUQp-1" vertex="1">
                    <mxGeometry x="270" y="140" width="100" height="40" as="geometry"/>
                </mxCell>
                <mxCell id="mzPPIke4VZpRd02Qtkyj-8" value="PublicationYear" style="ellipse;whiteSpace=wrap;html=1;align=center;" parent="V-ujdH5ubDhLP4uPMUQp-1" vertex="1">
                    <mxGeometry x="470" y="210" width="100" height="40" as="geometry"/>
                </mxCell>
                <mxCell id="mzPPIke4VZpRd02Qtkyj-9" value="ISBN" style="ellipse;whiteSpace=wrap;html=1;align=center;" parent="V-ujdH5ubDhLP4uPMUQp-1" vertex="1">
                    <mxGeometry x="390" y="140" width="100" height="40" as="geometry"/>
                </mxCell>
                <mxCell id="mzPPIke4VZpRd02Qtkyj-10" value="Price" style="ellipse;whiteSpace=wrap;html=1;align=center;" parent="V-ujdH5ubDhLP4uPMUQp-1" vertex="1">
                    <mxGeometry x="470" y="270" width="100" height="40" as="geometry"/>
                </mxCell>
                <mxCell id="mzPPIke4VZpRd02Qtkyj-16" value="PhoneNumber" style="ellipse;whiteSpace=wrap;html=1;align=center;" parent="V-ujdH5ubDhLP4uPMUQp-1" vertex="1">
                    <mxGeometry x="-190" y="320" width="100" height="40" as="geometry"/>
                </mxCell>
                <mxCell id="mzPPIke4VZpRd02Qtkyj-18" value="" style="shape=link;html=1;rounded=0;endArrow=none;endFill=0;strokeWidth=2;exitX=0.5;exitY=1;exitDx=0;exitDy=0;entryX=0.5;entryY=0;entryDx=0;entryDy=0;" parent="V-ujdH5ubDhLP4uPMUQp-1" source="S7RAa20YkkKwCKf99ZVP-24" target="S7RAa20YkkKwCKf99ZVP-36" edge="1">
                    <mxGeometry relative="1" as="geometry">
                        <mxPoint x="170" y="20" as="sourcePoint"/>
                        <mxPoint x="330" y="20" as="targetPoint"/>
                    </mxGeometry>
                </mxCell>
                <mxCell id="mzPPIke4VZpRd02Qtkyj-19" value="N" style="resizable=0;html=1;align=right;verticalAlign=bottom;" parent="mzPPIke4VZpRd02Qtkyj-18" connectable="0" vertex="1">
                    <mxGeometry x="1" relative="1" as="geometry">
                        <mxPoint x="-10" as="offset"/>
                    </mxGeometry>
                </mxCell>
                <mxCell id="mzPPIke4VZpRd02Qtkyj-20" value="PriceCut" style="ellipse;whiteSpace=wrap;html=1;align=center;" parent="V-ujdH5ubDhLP4uPMUQp-1" vertex="1">
                    <mxGeometry x="180" y="-80" width="100" height="40" as="geometry"/>
                </mxCell>
            </root>
        </mxGraphModel>
    </diagram>
    <diagram id="QQoovmtBeiy7dcCA8HTd" name="RELATIONAL">
        <mxGraphModel dx="947" dy="2164" grid="1" gridSize="10" guides="1" tooltips="1" connect="1" arrows="1" fold="1" page="1" pageScale="1" pageWidth="850" pageHeight="1100" math="0" shadow="0">
            <root>
                <mxCell id="Htj5o6ON6LLLipoomDY7-0"/>
                <mxCell id="Htj5o6ON6LLLipoomDY7-1" parent="Htj5o6ON6LLLipoomDY7-0"/>
                <mxCell id="rOToKN-Z1bet0K4fhbui-0" value="Customer" style="shape=table;startSize=30;container=1;collapsible=1;childLayout=tableLayout;fixedRows=1;rowLines=0;fontStyle=1;align=center;resizeLast=1;fillColor=default;" vertex="1" parent="Htj5o6ON6LLLipoomDY7-1">
                    <mxGeometry x="1490" y="-40" width="180" height="310" as="geometry"/>
                </mxCell>
                <mxCell id="rOToKN-Z1bet0K4fhbui-1" value="" style="shape=partialRectangle;collapsible=0;dropTarget=0;pointerEvents=0;fillColor=none;top=0;left=0;bottom=1;right=0;points=[[0,0.5],[1,0.5]];portConstraint=eastwest;" vertex="1" parent="rOToKN-Z1bet0K4fhbui-0">
                    <mxGeometry y="30" width="180" height="30" as="geometry"/>
                </mxCell>
                <mxCell id="rOToKN-Z1bet0K4fhbui-2" value="PK" style="shape=partialRectangle;connectable=0;fillColor=none;top=0;left=0;bottom=0;right=0;fontStyle=1;overflow=hidden;" vertex="1" parent="rOToKN-Z1bet0K4fhbui-1">
                    <mxGeometry width="30" height="30" as="geometry">
                        <mxRectangle width="30" height="30" as="alternateBounds"/>
                    </mxGeometry>
                </mxCell>
                <mxCell id="rOToKN-Z1bet0K4fhbui-3" value="CustomerID" style="shape=partialRectangle;connectable=0;fillColor=none;top=0;left=0;bottom=0;right=0;align=left;spacingLeft=6;fontStyle=5;overflow=hidden;" vertex="1" parent="rOToKN-Z1bet0K4fhbui-1">
                    <mxGeometry x="30" width="150" height="30" as="geometry">
                        <mxRectangle width="150" height="30" as="alternateBounds"/>
                    </mxGeometry>
                </mxCell>
                <mxCell id="rOToKN-Z1bet0K4fhbui-4" value="" style="shape=partialRectangle;collapsible=0;dropTarget=0;pointerEvents=0;fillColor=none;top=0;left=0;bottom=0;right=0;points=[[0,0.5],[1,0.5]];portConstraint=eastwest;" vertex="1" parent="rOToKN-Z1bet0K4fhbui-0">
                    <mxGeometry y="60" width="180" height="30" as="geometry"/>
                </mxCell>
                <mxCell id="rOToKN-Z1bet0K4fhbui-5" value="" style="shape=partialRectangle;connectable=0;fillColor=none;top=0;left=0;bottom=0;right=0;editable=1;overflow=hidden;" vertex="1" parent="rOToKN-Z1bet0K4fhbui-4">
                    <mxGeometry width="30" height="30" as="geometry">
                        <mxRectangle width="30" height="30" as="alternateBounds"/>
                    </mxGeometry>
                </mxCell>
                <mxCell id="rOToKN-Z1bet0K4fhbui-6" value="FirstName" style="shape=partialRectangle;connectable=0;fillColor=none;top=0;left=0;bottom=0;right=0;align=left;spacingLeft=6;overflow=hidden;" vertex="1" parent="rOToKN-Z1bet0K4fhbui-4">
                    <mxGeometry x="30" width="150" height="30" as="geometry">
                        <mxRectangle width="150" height="30" as="alternateBounds"/>
                    </mxGeometry>
                </mxCell>
                <mxCell id="rOToKN-Z1bet0K4fhbui-7" value="" style="shape=partialRectangle;collapsible=0;dropTarget=0;pointerEvents=0;fillColor=none;top=0;left=0;bottom=0;right=0;points=[[0,0.5],[1,0.5]];portConstraint=eastwest;" vertex="1" parent="rOToKN-Z1bet0K4fhbui-0">
                    <mxGeometry y="90" width="180" height="30" as="geometry"/>
                </mxCell>
                <mxCell id="rOToKN-Z1bet0K4fhbui-8" value="" style="shape=partialRectangle;connectable=0;fillColor=none;top=0;left=0;bottom=0;right=0;editable=1;overflow=hidden;" vertex="1" parent="rOToKN-Z1bet0K4fhbui-7">
                    <mxGeometry width="30" height="30" as="geometry">
                        <mxRectangle width="30" height="30" as="alternateBounds"/>
                    </mxGeometry>
                </mxCell>
                <mxCell id="rOToKN-Z1bet0K4fhbui-9" value="LastName" style="shape=partialRectangle;connectable=0;fillColor=none;top=0;left=0;bottom=0;right=0;align=left;spacingLeft=6;overflow=hidden;" vertex="1" parent="rOToKN-Z1bet0K4fhbui-7">
                    <mxGeometry x="30" width="150" height="30" as="geometry">
                        <mxRectangle width="150" height="30" as="alternateBounds"/>
                    </mxGeometry>
                </mxCell>
                <mxCell id="rOToKN-Z1bet0K4fhbui-10" value="" style="shape=partialRectangle;collapsible=0;dropTarget=0;pointerEvents=0;fillColor=none;top=0;left=0;bottom=0;right=0;points=[[0,0.5],[1,0.5]];portConstraint=eastwest;" vertex="1" parent="rOToKN-Z1bet0K4fhbui-0">
                    <mxGeometry y="120" width="180" height="30" as="geometry"/>
                </mxCell>
                <mxCell id="rOToKN-Z1bet0K4fhbui-11" value="" style="shape=partialRectangle;connectable=0;fillColor=none;top=0;left=0;bottom=0;right=0;editable=1;overflow=hidden;" vertex="1" parent="rOToKN-Z1bet0K4fhbui-10">
                    <mxGeometry width="30" height="30" as="geometry">
                        <mxRectangle width="30" height="30" as="alternateBounds"/>
                    </mxGeometry>
                </mxCell>
                <mxCell id="rOToKN-Z1bet0K4fhbui-12" value="FathersName" style="shape=partialRectangle;connectable=0;fillColor=none;top=0;left=0;bottom=0;right=0;align=left;spacingLeft=6;overflow=hidden;" vertex="1" parent="rOToKN-Z1bet0K4fhbui-10">
                    <mxGeometry x="30" width="150" height="30" as="geometry">
                        <mxRectangle width="150" height="30" as="alternateBounds"/>
                    </mxGeometry>
                </mxCell>
                <mxCell id="ZZqOj8tAy40mGDjij82w-0" value="" style="shape=partialRectangle;collapsible=0;dropTarget=0;pointerEvents=0;fillColor=none;top=0;left=0;bottom=0;right=0;points=[[0,0.5],[1,0.5]];portConstraint=eastwest;" vertex="1" parent="rOToKN-Z1bet0K4fhbui-0">
                    <mxGeometry y="150" width="180" height="30" as="geometry"/>
                </mxCell>
                <mxCell id="ZZqOj8tAy40mGDjij82w-1" value="" style="shape=partialRectangle;connectable=0;fillColor=none;top=0;left=0;bottom=0;right=0;editable=1;overflow=hidden;" vertex="1" parent="ZZqOj8tAy40mGDjij82w-0">
                    <mxGeometry width="30" height="30" as="geometry">
                        <mxRectangle width="30" height="30" as="alternateBounds"/>
                    </mxGeometry>
                </mxCell>
                <mxCell id="ZZqOj8tAy40mGDjij82w-2" value="Email" style="shape=partialRectangle;connectable=0;fillColor=none;top=0;left=0;bottom=0;right=0;align=left;spacingLeft=6;overflow=hidden;" vertex="1" parent="ZZqOj8tAy40mGDjij82w-0">
                    <mxGeometry x="30" width="150" height="30" as="geometry">
                        <mxRectangle width="150" height="30" as="alternateBounds"/>
                    </mxGeometry>
                </mxCell>
                <mxCell id="asjq0dxXiQwIgg2_8ezU-0" value="" style="shape=partialRectangle;collapsible=0;dropTarget=0;pointerEvents=0;fillColor=none;top=0;left=0;bottom=0;right=0;points=[[0,0.5],[1,0.5]];portConstraint=eastwest;" vertex="1" parent="rOToKN-Z1bet0K4fhbui-0">
                    <mxGeometry y="180" width="180" height="30" as="geometry"/>
                </mxCell>
                <mxCell id="asjq0dxXiQwIgg2_8ezU-1" value="" style="shape=partialRectangle;connectable=0;fillColor=none;top=0;left=0;bottom=0;right=0;editable=1;overflow=hidden;" vertex="1" parent="asjq0dxXiQwIgg2_8ezU-0">
                    <mxGeometry width="30" height="30" as="geometry">
                        <mxRectangle width="30" height="30" as="alternateBounds"/>
                    </mxGeometry>
                </mxCell>
                <mxCell id="asjq0dxXiQwIgg2_8ezU-2" value="City" style="shape=partialRectangle;connectable=0;fillColor=none;top=0;left=0;bottom=0;right=0;align=left;spacingLeft=6;overflow=hidden;" vertex="1" parent="asjq0dxXiQwIgg2_8ezU-0">
                    <mxGeometry x="30" width="150" height="30" as="geometry">
                        <mxRectangle width="150" height="30" as="alternateBounds"/>
                    </mxGeometry>
                </mxCell>
                <mxCell id="asjq0dxXiQwIgg2_8ezU-3" value="" style="shape=partialRectangle;collapsible=0;dropTarget=0;pointerEvents=0;fillColor=none;top=0;left=0;bottom=0;right=0;points=[[0,0.5],[1,0.5]];portConstraint=eastwest;" vertex="1" parent="rOToKN-Z1bet0K4fhbui-0">
                    <mxGeometry y="210" width="180" height="30" as="geometry"/>
                </mxCell>
                <mxCell id="asjq0dxXiQwIgg2_8ezU-4" value="" style="shape=partialRectangle;connectable=0;fillColor=none;top=0;left=0;bottom=0;right=0;editable=1;overflow=hidden;" vertex="1" parent="asjq0dxXiQwIgg2_8ezU-3">
                    <mxGeometry width="30" height="30" as="geometry">
                        <mxRectangle width="30" height="30" as="alternateBounds"/>
                    </mxGeometry>
                </mxCell>
                <mxCell id="asjq0dxXiQwIgg2_8ezU-5" value="Street" style="shape=partialRectangle;connectable=0;fillColor=none;top=0;left=0;bottom=0;right=0;align=left;spacingLeft=6;overflow=hidden;" vertex="1" parent="asjq0dxXiQwIgg2_8ezU-3">
                    <mxGeometry x="30" width="150" height="30" as="geometry">
                        <mxRectangle width="150" height="30" as="alternateBounds"/>
                    </mxGeometry>
                </mxCell>
                <mxCell id="asjq0dxXiQwIgg2_8ezU-6" value="" style="shape=partialRectangle;collapsible=0;dropTarget=0;pointerEvents=0;fillColor=none;top=0;left=0;bottom=0;right=0;points=[[0,0.5],[1,0.5]];portConstraint=eastwest;" vertex="1" parent="rOToKN-Z1bet0K4fhbui-0">
                    <mxGeometry y="240" width="180" height="30" as="geometry"/>
                </mxCell>
                <mxCell id="asjq0dxXiQwIgg2_8ezU-7" value="" style="shape=partialRectangle;connectable=0;fillColor=none;top=0;left=0;bottom=0;right=0;editable=1;overflow=hidden;" vertex="1" parent="asjq0dxXiQwIgg2_8ezU-6">
                    <mxGeometry width="30" height="30" as="geometry">
                        <mxRectangle width="30" height="30" as="alternateBounds"/>
                    </mxGeometry>
                </mxCell>
                <mxCell id="asjq0dxXiQwIgg2_8ezU-8" value="StNo" style="shape=partialRectangle;connectable=0;fillColor=none;top=0;left=0;bottom=0;right=0;align=left;spacingLeft=6;overflow=hidden;" vertex="1" parent="asjq0dxXiQwIgg2_8ezU-6">
                    <mxGeometry x="30" width="150" height="30" as="geometry">
                        <mxRectangle width="150" height="30" as="alternateBounds"/>
                    </mxGeometry>
                </mxCell>
                <mxCell id="asjq0dxXiQwIgg2_8ezU-9" value="" style="shape=partialRectangle;collapsible=0;dropTarget=0;pointerEvents=0;fillColor=none;top=0;left=0;bottom=0;right=0;points=[[0,0.5],[1,0.5]];portConstraint=eastwest;" vertex="1" parent="rOToKN-Z1bet0K4fhbui-0">
                    <mxGeometry y="270" width="180" height="30" as="geometry"/>
                </mxCell>
                <mxCell id="asjq0dxXiQwIgg2_8ezU-10" value="" style="shape=partialRectangle;connectable=0;fillColor=none;top=0;left=0;bottom=0;right=0;editable=1;overflow=hidden;" vertex="1" parent="asjq0dxXiQwIgg2_8ezU-9">
                    <mxGeometry width="30" height="30" as="geometry">
                        <mxRectangle width="30" height="30" as="alternateBounds"/>
                    </mxGeometry>
                </mxCell>
                <mxCell id="asjq0dxXiQwIgg2_8ezU-11" value="Postcode" style="shape=partialRectangle;connectable=0;fillColor=none;top=0;left=0;bottom=0;right=0;align=left;spacingLeft=6;overflow=hidden;" vertex="1" parent="asjq0dxXiQwIgg2_8ezU-9">
                    <mxGeometry x="30" width="150" height="30" as="geometry">
                        <mxRectangle width="150" height="30" as="alternateBounds"/>
                    </mxGeometry>
                </mxCell>
                <mxCell id="asjq0dxXiQwIgg2_8ezU-12" value="Writer" style="shape=table;startSize=30;container=1;collapsible=1;childLayout=tableLayout;fixedRows=1;rowLines=0;fontStyle=1;align=center;resizeLast=1;fillColor=default;" vertex="1" parent="Htj5o6ON6LLLipoomDY7-1">
                    <mxGeometry x="1470" y="455" width="180" height="160" as="geometry"/>
                </mxCell>
                <mxCell id="asjq0dxXiQwIgg2_8ezU-13" value="" style="shape=partialRectangle;collapsible=0;dropTarget=0;pointerEvents=0;fillColor=none;top=0;left=0;bottom=1;right=0;points=[[0,0.5],[1,0.5]];portConstraint=eastwest;" vertex="1" parent="asjq0dxXiQwIgg2_8ezU-12">
                    <mxGeometry y="30" width="180" height="30" as="geometry"/>
                </mxCell>
                <mxCell id="asjq0dxXiQwIgg2_8ezU-14" value="PK" style="shape=partialRectangle;connectable=0;fillColor=none;top=0;left=0;bottom=0;right=0;fontStyle=1;overflow=hidden;" vertex="1" parent="asjq0dxXiQwIgg2_8ezU-13">
                    <mxGeometry width="30" height="30" as="geometry">
                        <mxRectangle width="30" height="30" as="alternateBounds"/>
                    </mxGeometry>
                </mxCell>
                <mxCell id="asjq0dxXiQwIgg2_8ezU-15" value="WriterID" style="shape=partialRectangle;connectable=0;fillColor=none;top=0;left=0;bottom=0;right=0;align=left;spacingLeft=6;fontStyle=5;overflow=hidden;" vertex="1" parent="asjq0dxXiQwIgg2_8ezU-13">
                    <mxGeometry x="30" width="150" height="30" as="geometry">
                        <mxRectangle width="150" height="30" as="alternateBounds"/>
                    </mxGeometry>
                </mxCell>
                <mxCell id="asjq0dxXiQwIgg2_8ezU-16" value="" style="shape=partialRectangle;collapsible=0;dropTarget=0;pointerEvents=0;fillColor=none;top=0;left=0;bottom=0;right=0;points=[[0,0.5],[1,0.5]];portConstraint=eastwest;" vertex="1" parent="asjq0dxXiQwIgg2_8ezU-12">
                    <mxGeometry y="60" width="180" height="30" as="geometry"/>
                </mxCell>
                <mxCell id="asjq0dxXiQwIgg2_8ezU-17" value="" style="shape=partialRectangle;connectable=0;fillColor=none;top=0;left=0;bottom=0;right=0;editable=1;overflow=hidden;" vertex="1" parent="asjq0dxXiQwIgg2_8ezU-16">
                    <mxGeometry width="30" height="30" as="geometry">
                        <mxRectangle width="30" height="30" as="alternateBounds"/>
                    </mxGeometry>
                </mxCell>
                <mxCell id="asjq0dxXiQwIgg2_8ezU-18" value="FirstName" style="shape=partialRectangle;connectable=0;fillColor=none;top=0;left=0;bottom=0;right=0;align=left;spacingLeft=6;overflow=hidden;" vertex="1" parent="asjq0dxXiQwIgg2_8ezU-16">
                    <mxGeometry x="30" width="150" height="30" as="geometry">
                        <mxRectangle width="150" height="30" as="alternateBounds"/>
                    </mxGeometry>
                </mxCell>
                <mxCell id="asjq0dxXiQwIgg2_8ezU-19" value="" style="shape=partialRectangle;collapsible=0;dropTarget=0;pointerEvents=0;fillColor=none;top=0;left=0;bottom=0;right=0;points=[[0,0.5],[1,0.5]];portConstraint=eastwest;" vertex="1" parent="asjq0dxXiQwIgg2_8ezU-12">
                    <mxGeometry y="90" width="180" height="30" as="geometry"/>
                </mxCell>
                <mxCell id="asjq0dxXiQwIgg2_8ezU-20" value="" style="shape=partialRectangle;connectable=0;fillColor=none;top=0;left=0;bottom=0;right=0;editable=1;overflow=hidden;" vertex="1" parent="asjq0dxXiQwIgg2_8ezU-19">
                    <mxGeometry width="30" height="30" as="geometry">
                        <mxRectangle width="30" height="30" as="alternateBounds"/>
                    </mxGeometry>
                </mxCell>
                <mxCell id="asjq0dxXiQwIgg2_8ezU-21" value="LastName" style="shape=partialRectangle;connectable=0;fillColor=none;top=0;left=0;bottom=0;right=0;align=left;spacingLeft=6;overflow=hidden;" vertex="1" parent="asjq0dxXiQwIgg2_8ezU-19">
                    <mxGeometry x="30" width="150" height="30" as="geometry">
                        <mxRectangle width="150" height="30" as="alternateBounds"/>
                    </mxGeometry>
                </mxCell>
                <mxCell id="asjq0dxXiQwIgg2_8ezU-25" value="" style="shape=partialRectangle;collapsible=0;dropTarget=0;pointerEvents=0;fillColor=none;top=0;left=0;bottom=0;right=0;points=[[0,0.5],[1,0.5]];portConstraint=eastwest;" vertex="1" parent="asjq0dxXiQwIgg2_8ezU-12">
                    <mxGeometry y="120" width="180" height="30" as="geometry"/>
                </mxCell>
                <mxCell id="asjq0dxXiQwIgg2_8ezU-26" value="" style="shape=partialRectangle;connectable=0;fillColor=none;top=0;left=0;bottom=0;right=0;editable=1;overflow=hidden;" vertex="1" parent="asjq0dxXiQwIgg2_8ezU-25">
                    <mxGeometry width="30" height="30" as="geometry">
                        <mxRectangle width="30" height="30" as="alternateBounds"/>
                    </mxGeometry>
                </mxCell>
                <mxCell id="asjq0dxXiQwIgg2_8ezU-27" value="Email" style="shape=partialRectangle;connectable=0;fillColor=none;top=0;left=0;bottom=0;right=0;align=left;spacingLeft=6;overflow=hidden;" vertex="1" parent="asjq0dxXiQwIgg2_8ezU-25">
                    <mxGeometry x="30" width="150" height="30" as="geometry">
                        <mxRectangle width="150" height="30" as="alternateBounds"/>
                    </mxGeometry>
                </mxCell>
                <mxCell id="fzP_hOgdrtJUyl95ZpHG-0" value="Publisher" style="shape=table;startSize=30;container=1;collapsible=1;childLayout=tableLayout;fixedRows=1;rowLines=0;fontStyle=1;align=center;resizeLast=1;fillColor=default;" vertex="1" parent="Htj5o6ON6LLLipoomDY7-1">
                    <mxGeometry x="800" y="850" width="180" height="250" as="geometry"/>
                </mxCell>
                <mxCell id="fzP_hOgdrtJUyl95ZpHG-1" value="" style="shape=partialRectangle;collapsible=0;dropTarget=0;pointerEvents=0;fillColor=none;top=0;left=0;bottom=1;right=0;points=[[0,0.5],[1,0.5]];portConstraint=eastwest;" vertex="1" parent="fzP_hOgdrtJUyl95ZpHG-0">
                    <mxGeometry y="30" width="180" height="30" as="geometry"/>
                </mxCell>
                <mxCell id="fzP_hOgdrtJUyl95ZpHG-2" value="PK" style="shape=partialRectangle;connectable=0;fillColor=none;top=0;left=0;bottom=0;right=0;fontStyle=1;overflow=hidden;" vertex="1" parent="fzP_hOgdrtJUyl95ZpHG-1">
                    <mxGeometry width="30" height="30" as="geometry">
                        <mxRectangle width="30" height="30" as="alternateBounds"/>
                    </mxGeometry>
                </mxCell>
                <mxCell id="fzP_hOgdrtJUyl95ZpHG-3" value="PublisherID" style="shape=partialRectangle;connectable=0;fillColor=none;top=0;left=0;bottom=0;right=0;align=left;spacingLeft=6;fontStyle=5;overflow=hidden;" vertex="1" parent="fzP_hOgdrtJUyl95ZpHG-1">
                    <mxGeometry x="30" width="150" height="30" as="geometry">
                        <mxRectangle width="150" height="30" as="alternateBounds"/>
                    </mxGeometry>
                </mxCell>
                <mxCell id="fzP_hOgdrtJUyl95ZpHG-4" value="" style="shape=partialRectangle;collapsible=0;dropTarget=0;pointerEvents=0;fillColor=none;top=0;left=0;bottom=0;right=0;points=[[0,0.5],[1,0.5]];portConstraint=eastwest;" vertex="1" parent="fzP_hOgdrtJUyl95ZpHG-0">
                    <mxGeometry y="60" width="180" height="30" as="geometry"/>
                </mxCell>
                <mxCell id="fzP_hOgdrtJUyl95ZpHG-5" value="" style="shape=partialRectangle;connectable=0;fillColor=none;top=0;left=0;bottom=0;right=0;editable=1;overflow=hidden;" vertex="1" parent="fzP_hOgdrtJUyl95ZpHG-4">
                    <mxGeometry width="30" height="30" as="geometry">
                        <mxRectangle width="30" height="30" as="alternateBounds"/>
                    </mxGeometry>
                </mxCell>
                <mxCell id="fzP_hOgdrtJUyl95ZpHG-6" value="Name" style="shape=partialRectangle;connectable=0;fillColor=none;top=0;left=0;bottom=0;right=0;align=left;spacingLeft=6;overflow=hidden;" vertex="1" parent="fzP_hOgdrtJUyl95ZpHG-4">
                    <mxGeometry x="30" width="150" height="30" as="geometry">
                        <mxRectangle width="150" height="30" as="alternateBounds"/>
                    </mxGeometry>
                </mxCell>
                <mxCell id="fzP_hOgdrtJUyl95ZpHG-13" value="" style="shape=partialRectangle;collapsible=0;dropTarget=0;pointerEvents=0;fillColor=none;top=0;left=0;bottom=0;right=0;points=[[0,0.5],[1,0.5]];portConstraint=eastwest;" vertex="1" parent="fzP_hOgdrtJUyl95ZpHG-0">
                    <mxGeometry y="90" width="180" height="30" as="geometry"/>
                </mxCell>
                <mxCell id="fzP_hOgdrtJUyl95ZpHG-14" value="" style="shape=partialRectangle;connectable=0;fillColor=none;top=0;left=0;bottom=0;right=0;editable=1;overflow=hidden;" vertex="1" parent="fzP_hOgdrtJUyl95ZpHG-13">
                    <mxGeometry width="30" height="30" as="geometry">
                        <mxRectangle width="30" height="30" as="alternateBounds"/>
                    </mxGeometry>
                </mxCell>
                <mxCell id="fzP_hOgdrtJUyl95ZpHG-15" value="WebsiteURL" style="shape=partialRectangle;connectable=0;fillColor=none;top=0;left=0;bottom=0;right=0;align=left;spacingLeft=6;overflow=hidden;" vertex="1" parent="fzP_hOgdrtJUyl95ZpHG-13">
                    <mxGeometry x="30" width="150" height="30" as="geometry">
                        <mxRectangle width="150" height="30" as="alternateBounds"/>
                    </mxGeometry>
                </mxCell>
                <mxCell id="fzP_hOgdrtJUyl95ZpHG-16" value="" style="shape=partialRectangle;collapsible=0;dropTarget=0;pointerEvents=0;fillColor=none;top=0;left=0;bottom=0;right=0;points=[[0,0.5],[1,0.5]];portConstraint=eastwest;" vertex="1" parent="fzP_hOgdrtJUyl95ZpHG-0">
                    <mxGeometry y="120" width="180" height="30" as="geometry"/>
                </mxCell>
                <mxCell id="fzP_hOgdrtJUyl95ZpHG-17" value="" style="shape=partialRectangle;connectable=0;fillColor=none;top=0;left=0;bottom=0;right=0;editable=1;overflow=hidden;" vertex="1" parent="fzP_hOgdrtJUyl95ZpHG-16">
                    <mxGeometry width="30" height="30" as="geometry">
                        <mxRectangle width="30" height="30" as="alternateBounds"/>
                    </mxGeometry>
                </mxCell>
                <mxCell id="fzP_hOgdrtJUyl95ZpHG-18" value="City" style="shape=partialRectangle;connectable=0;fillColor=none;top=0;left=0;bottom=0;right=0;align=left;spacingLeft=6;overflow=hidden;" vertex="1" parent="fzP_hOgdrtJUyl95ZpHG-16">
                    <mxGeometry x="30" width="150" height="30" as="geometry">
                        <mxRectangle width="150" height="30" as="alternateBounds"/>
                    </mxGeometry>
                </mxCell>
                <mxCell id="fzP_hOgdrtJUyl95ZpHG-19" value="" style="shape=partialRectangle;collapsible=0;dropTarget=0;pointerEvents=0;fillColor=none;top=0;left=0;bottom=0;right=0;points=[[0,0.5],[1,0.5]];portConstraint=eastwest;" vertex="1" parent="fzP_hOgdrtJUyl95ZpHG-0">
                    <mxGeometry y="150" width="180" height="30" as="geometry"/>
                </mxCell>
                <mxCell id="fzP_hOgdrtJUyl95ZpHG-20" value="" style="shape=partialRectangle;connectable=0;fillColor=none;top=0;left=0;bottom=0;right=0;editable=1;overflow=hidden;" vertex="1" parent="fzP_hOgdrtJUyl95ZpHG-19">
                    <mxGeometry width="30" height="30" as="geometry">
                        <mxRectangle width="30" height="30" as="alternateBounds"/>
                    </mxGeometry>
                </mxCell>
                <mxCell id="fzP_hOgdrtJUyl95ZpHG-21" value="Street" style="shape=partialRectangle;connectable=0;fillColor=none;top=0;left=0;bottom=0;right=0;align=left;spacingLeft=6;overflow=hidden;" vertex="1" parent="fzP_hOgdrtJUyl95ZpHG-19">
                    <mxGeometry x="30" width="150" height="30" as="geometry">
                        <mxRectangle width="150" height="30" as="alternateBounds"/>
                    </mxGeometry>
                </mxCell>
                <mxCell id="fzP_hOgdrtJUyl95ZpHG-22" value="" style="shape=partialRectangle;collapsible=0;dropTarget=0;pointerEvents=0;fillColor=none;top=0;left=0;bottom=0;right=0;points=[[0,0.5],[1,0.5]];portConstraint=eastwest;" vertex="1" parent="fzP_hOgdrtJUyl95ZpHG-0">
                    <mxGeometry y="180" width="180" height="30" as="geometry"/>
                </mxCell>
                <mxCell id="fzP_hOgdrtJUyl95ZpHG-23" value="" style="shape=partialRectangle;connectable=0;fillColor=none;top=0;left=0;bottom=0;right=0;editable=1;overflow=hidden;" vertex="1" parent="fzP_hOgdrtJUyl95ZpHG-22">
                    <mxGeometry width="30" height="30" as="geometry">
                        <mxRectangle width="30" height="30" as="alternateBounds"/>
                    </mxGeometry>
                </mxCell>
                <mxCell id="fzP_hOgdrtJUyl95ZpHG-24" value="StNo" style="shape=partialRectangle;connectable=0;fillColor=none;top=0;left=0;bottom=0;right=0;align=left;spacingLeft=6;overflow=hidden;" vertex="1" parent="fzP_hOgdrtJUyl95ZpHG-22">
                    <mxGeometry x="30" width="150" height="30" as="geometry">
                        <mxRectangle width="150" height="30" as="alternateBounds"/>
                    </mxGeometry>
                </mxCell>
                <mxCell id="fzP_hOgdrtJUyl95ZpHG-25" value="" style="shape=partialRectangle;collapsible=0;dropTarget=0;pointerEvents=0;fillColor=none;top=0;left=0;bottom=0;right=0;points=[[0,0.5],[1,0.5]];portConstraint=eastwest;" vertex="1" parent="fzP_hOgdrtJUyl95ZpHG-0">
                    <mxGeometry y="210" width="180" height="30" as="geometry"/>
                </mxCell>
                <mxCell id="fzP_hOgdrtJUyl95ZpHG-26" value="" style="shape=partialRectangle;connectable=0;fillColor=none;top=0;left=0;bottom=0;right=0;editable=1;overflow=hidden;" vertex="1" parent="fzP_hOgdrtJUyl95ZpHG-25">
                    <mxGeometry width="30" height="30" as="geometry">
                        <mxRectangle width="30" height="30" as="alternateBounds"/>
                    </mxGeometry>
                </mxCell>
                <mxCell id="fzP_hOgdrtJUyl95ZpHG-27" value="Postcode" style="shape=partialRectangle;connectable=0;fillColor=none;top=0;left=0;bottom=0;right=0;align=left;spacingLeft=6;overflow=hidden;" vertex="1" parent="fzP_hOgdrtJUyl95ZpHG-25">
                    <mxGeometry x="30" width="150" height="30" as="geometry">
                        <mxRectangle width="150" height="30" as="alternateBounds"/>
                    </mxGeometry>
                </mxCell>
                <mxCell id="JwsbKipex1hxOXb4tmm7-0" value="Warehouse" style="shape=table;startSize=30;container=1;collapsible=1;childLayout=tableLayout;fixedRows=1;rowLines=0;fontStyle=1;align=center;resizeLast=1;fillColor=default;" vertex="1" parent="Htj5o6ON6LLLipoomDY7-1">
                    <mxGeometry x="200" y="440" width="180" height="220" as="geometry"/>
                </mxCell>
                <mxCell id="JwsbKipex1hxOXb4tmm7-1" value="" style="shape=partialRectangle;collapsible=0;dropTarget=0;pointerEvents=0;fillColor=none;top=0;left=0;bottom=1;right=0;points=[[0,0.5],[1,0.5]];portConstraint=eastwest;" vertex="1" parent="JwsbKipex1hxOXb4tmm7-0">
                    <mxGeometry y="30" width="180" height="30" as="geometry"/>
                </mxCell>
                <mxCell id="JwsbKipex1hxOXb4tmm7-2" value="PK" style="shape=partialRectangle;connectable=0;fillColor=none;top=0;left=0;bottom=0;right=0;fontStyle=1;overflow=hidden;" vertex="1" parent="JwsbKipex1hxOXb4tmm7-1">
                    <mxGeometry width="30" height="30" as="geometry">
                        <mxRectangle width="30" height="30" as="alternateBounds"/>
                    </mxGeometry>
                </mxCell>
                <mxCell id="JwsbKipex1hxOXb4tmm7-3" value="WarehouseID" style="shape=partialRectangle;connectable=0;fillColor=none;top=0;left=0;bottom=0;right=0;align=left;spacingLeft=6;fontStyle=5;overflow=hidden;" vertex="1" parent="JwsbKipex1hxOXb4tmm7-1">
                    <mxGeometry x="30" width="150" height="30" as="geometry">
                        <mxRectangle width="150" height="30" as="alternateBounds"/>
                    </mxGeometry>
                </mxCell>
                <mxCell id="JwsbKipex1hxOXb4tmm7-4" value="" style="shape=partialRectangle;collapsible=0;dropTarget=0;pointerEvents=0;fillColor=none;top=0;left=0;bottom=0;right=0;points=[[0,0.5],[1,0.5]];portConstraint=eastwest;" vertex="1" parent="JwsbKipex1hxOXb4tmm7-0">
                    <mxGeometry y="60" width="180" height="30" as="geometry"/>
                </mxCell>
                <mxCell id="JwsbKipex1hxOXb4tmm7-5" value="" style="shape=partialRectangle;connectable=0;fillColor=none;top=0;left=0;bottom=0;right=0;editable=1;overflow=hidden;" vertex="1" parent="JwsbKipex1hxOXb4tmm7-4">
                    <mxGeometry width="30" height="30" as="geometry">
                        <mxRectangle width="30" height="30" as="alternateBounds"/>
                    </mxGeometry>
                </mxCell>
                <mxCell id="JwsbKipex1hxOXb4tmm7-6" value="PhoneNumber" style="shape=partialRectangle;connectable=0;fillColor=none;top=0;left=0;bottom=0;right=0;align=left;spacingLeft=6;overflow=hidden;" vertex="1" parent="JwsbKipex1hxOXb4tmm7-4">
                    <mxGeometry x="30" width="150" height="30" as="geometry">
                        <mxRectangle width="150" height="30" as="alternateBounds"/>
                    </mxGeometry>
                </mxCell>
                <mxCell id="JwsbKipex1hxOXb4tmm7-16" value="" style="shape=partialRectangle;collapsible=0;dropTarget=0;pointerEvents=0;fillColor=none;top=0;left=0;bottom=0;right=0;points=[[0,0.5],[1,0.5]];portConstraint=eastwest;" vertex="1" parent="JwsbKipex1hxOXb4tmm7-0">
                    <mxGeometry y="90" width="180" height="30" as="geometry"/>
                </mxCell>
                <mxCell id="JwsbKipex1hxOXb4tmm7-17" value="" style="shape=partialRectangle;connectable=0;fillColor=none;top=0;left=0;bottom=0;right=0;editable=1;overflow=hidden;" vertex="1" parent="JwsbKipex1hxOXb4tmm7-16">
                    <mxGeometry width="30" height="30" as="geometry">
                        <mxRectangle width="30" height="30" as="alternateBounds"/>
                    </mxGeometry>
                </mxCell>
                <mxCell id="JwsbKipex1hxOXb4tmm7-18" value="City" style="shape=partialRectangle;connectable=0;fillColor=none;top=0;left=0;bottom=0;right=0;align=left;spacingLeft=6;overflow=hidden;" vertex="1" parent="JwsbKipex1hxOXb4tmm7-16">
                    <mxGeometry x="30" width="150" height="30" as="geometry">
                        <mxRectangle width="150" height="30" as="alternateBounds"/>
                    </mxGeometry>
                </mxCell>
                <mxCell id="JwsbKipex1hxOXb4tmm7-19" value="" style="shape=partialRectangle;collapsible=0;dropTarget=0;pointerEvents=0;fillColor=none;top=0;left=0;bottom=0;right=0;points=[[0,0.5],[1,0.5]];portConstraint=eastwest;" vertex="1" parent="JwsbKipex1hxOXb4tmm7-0">
                    <mxGeometry y="120" width="180" height="30" as="geometry"/>
                </mxCell>
                <mxCell id="JwsbKipex1hxOXb4tmm7-20" value="" style="shape=partialRectangle;connectable=0;fillColor=none;top=0;left=0;bottom=0;right=0;editable=1;overflow=hidden;" vertex="1" parent="JwsbKipex1hxOXb4tmm7-19">
                    <mxGeometry width="30" height="30" as="geometry">
                        <mxRectangle width="30" height="30" as="alternateBounds"/>
                    </mxGeometry>
                </mxCell>
                <mxCell id="JwsbKipex1hxOXb4tmm7-21" value="Street" style="shape=partialRectangle;connectable=0;fillColor=none;top=0;left=0;bottom=0;right=0;align=left;spacingLeft=6;overflow=hidden;" vertex="1" parent="JwsbKipex1hxOXb4tmm7-19">
                    <mxGeometry x="30" width="150" height="30" as="geometry">
                        <mxRectangle width="150" height="30" as="alternateBounds"/>
                    </mxGeometry>
                </mxCell>
                <mxCell id="JwsbKipex1hxOXb4tmm7-22" value="" style="shape=partialRectangle;collapsible=0;dropTarget=0;pointerEvents=0;fillColor=none;top=0;left=0;bottom=0;right=0;points=[[0,0.5],[1,0.5]];portConstraint=eastwest;" vertex="1" parent="JwsbKipex1hxOXb4tmm7-0">
                    <mxGeometry y="150" width="180" height="30" as="geometry"/>
                </mxCell>
                <mxCell id="JwsbKipex1hxOXb4tmm7-23" value="" style="shape=partialRectangle;connectable=0;fillColor=none;top=0;left=0;bottom=0;right=0;editable=1;overflow=hidden;" vertex="1" parent="JwsbKipex1hxOXb4tmm7-22">
                    <mxGeometry width="30" height="30" as="geometry">
                        <mxRectangle width="30" height="30" as="alternateBounds"/>
                    </mxGeometry>
                </mxCell>
                <mxCell id="JwsbKipex1hxOXb4tmm7-24" value="StNo" style="shape=partialRectangle;connectable=0;fillColor=none;top=0;left=0;bottom=0;right=0;align=left;spacingLeft=6;overflow=hidden;" vertex="1" parent="JwsbKipex1hxOXb4tmm7-22">
                    <mxGeometry x="30" width="150" height="30" as="geometry">
                        <mxRectangle width="150" height="30" as="alternateBounds"/>
                    </mxGeometry>
                </mxCell>
                <mxCell id="JwsbKipex1hxOXb4tmm7-25" value="" style="shape=partialRectangle;collapsible=0;dropTarget=0;pointerEvents=0;fillColor=none;top=0;left=0;bottom=0;right=0;points=[[0,0.5],[1,0.5]];portConstraint=eastwest;" vertex="1" parent="JwsbKipex1hxOXb4tmm7-0">
                    <mxGeometry y="180" width="180" height="30" as="geometry"/>
                </mxCell>
                <mxCell id="JwsbKipex1hxOXb4tmm7-26" value="" style="shape=partialRectangle;connectable=0;fillColor=none;top=0;left=0;bottom=0;right=0;editable=1;overflow=hidden;" vertex="1" parent="JwsbKipex1hxOXb4tmm7-25">
                    <mxGeometry width="30" height="30" as="geometry">
                        <mxRectangle width="30" height="30" as="alternateBounds"/>
                    </mxGeometry>
                </mxCell>
                <mxCell id="JwsbKipex1hxOXb4tmm7-27" value="Postcode" style="shape=partialRectangle;connectable=0;fillColor=none;top=0;left=0;bottom=0;right=0;align=left;spacingLeft=6;overflow=hidden;" vertex="1" parent="JwsbKipex1hxOXb4tmm7-25">
                    <mxGeometry x="30" width="150" height="30" as="geometry">
                        <mxRectangle width="150" height="30" as="alternateBounds"/>
                    </mxGeometry>
                </mxCell>
                <mxCell id="yGausGd8ZyBJmIqK0OZ9-0" value="Book" style="shape=table;startSize=30;container=1;collapsible=1;childLayout=tableLayout;fixedRows=1;rowLines=0;fontStyle=1;align=center;resizeLast=1;fillColor=default;" vertex="1" parent="Htj5o6ON6LLLipoomDY7-1">
                    <mxGeometry x="790" y="425" width="180" height="280" as="geometry"/>
                </mxCell>
                <mxCell id="yGausGd8ZyBJmIqK0OZ9-1" value="" style="shape=partialRectangle;collapsible=0;dropTarget=0;pointerEvents=0;fillColor=none;top=0;left=0;bottom=1;right=0;points=[[0,0.5],[1,0.5]];portConstraint=eastwest;" vertex="1" parent="yGausGd8ZyBJmIqK0OZ9-0">
                    <mxGeometry y="30" width="180" height="30" as="geometry"/>
                </mxCell>
                <mxCell id="yGausGd8ZyBJmIqK0OZ9-2" value="PK" style="shape=partialRectangle;connectable=0;fillColor=none;top=0;left=0;bottom=0;right=0;fontStyle=1;overflow=hidden;" vertex="1" parent="yGausGd8ZyBJmIqK0OZ9-1">
                    <mxGeometry width="30" height="30" as="geometry">
                        <mxRectangle width="30" height="30" as="alternateBounds"/>
                    </mxGeometry>
                </mxCell>
                <mxCell id="yGausGd8ZyBJmIqK0OZ9-3" value="BookID" style="shape=partialRectangle;connectable=0;fillColor=none;top=0;left=0;bottom=0;right=0;align=left;spacingLeft=6;fontStyle=5;overflow=hidden;" vertex="1" parent="yGausGd8ZyBJmIqK0OZ9-1">
                    <mxGeometry x="30" width="150" height="30" as="geometry">
                        <mxRectangle width="150" height="30" as="alternateBounds"/>
                    </mxGeometry>
                </mxCell>
                <mxCell id="yGausGd8ZyBJmIqK0OZ9-4" value="" style="shape=partialRectangle;collapsible=0;dropTarget=0;pointerEvents=0;fillColor=none;top=0;left=0;bottom=0;right=0;points=[[0,0.5],[1,0.5]];portConstraint=eastwest;" vertex="1" parent="yGausGd8ZyBJmIqK0OZ9-0">
                    <mxGeometry y="60" width="180" height="30" as="geometry"/>
                </mxCell>
                <mxCell id="yGausGd8ZyBJmIqK0OZ9-5" value="" style="shape=partialRectangle;connectable=0;fillColor=none;top=0;left=0;bottom=0;right=0;editable=1;overflow=hidden;" vertex="1" parent="yGausGd8ZyBJmIqK0OZ9-4">
                    <mxGeometry width="30" height="30" as="geometry">
                        <mxRectangle width="30" height="30" as="alternateBounds"/>
                    </mxGeometry>
                </mxCell>
                <mxCell id="yGausGd8ZyBJmIqK0OZ9-6" value="Title" style="shape=partialRectangle;connectable=0;fillColor=none;top=0;left=0;bottom=0;right=0;align=left;spacingLeft=6;overflow=hidden;" vertex="1" parent="yGausGd8ZyBJmIqK0OZ9-4">
                    <mxGeometry x="30" width="150" height="30" as="geometry">
                        <mxRectangle width="150" height="30" as="alternateBounds"/>
                    </mxGeometry>
                </mxCell>
                <mxCell id="yGausGd8ZyBJmIqK0OZ9-7" value="" style="shape=partialRectangle;collapsible=0;dropTarget=0;pointerEvents=0;fillColor=none;top=0;left=0;bottom=0;right=0;points=[[0,0.5],[1,0.5]];portConstraint=eastwest;" vertex="1" parent="yGausGd8ZyBJmIqK0OZ9-0">
                    <mxGeometry y="90" width="180" height="30" as="geometry"/>
                </mxCell>
                <mxCell id="yGausGd8ZyBJmIqK0OZ9-8" value="" style="shape=partialRectangle;connectable=0;fillColor=none;top=0;left=0;bottom=0;right=0;editable=1;overflow=hidden;" vertex="1" parent="yGausGd8ZyBJmIqK0OZ9-7">
                    <mxGeometry width="30" height="30" as="geometry">
                        <mxRectangle width="30" height="30" as="alternateBounds"/>
                    </mxGeometry>
                </mxCell>
                <mxCell id="yGausGd8ZyBJmIqK0OZ9-9" value="ISBN" style="shape=partialRectangle;connectable=0;fillColor=none;top=0;left=0;bottom=0;right=0;align=left;spacingLeft=6;overflow=hidden;" vertex="1" parent="yGausGd8ZyBJmIqK0OZ9-7">
                    <mxGeometry x="30" width="150" height="30" as="geometry">
                        <mxRectangle width="150" height="30" as="alternateBounds"/>
                    </mxGeometry>
                </mxCell>
                <mxCell id="yGausGd8ZyBJmIqK0OZ9-10" value="" style="shape=partialRectangle;collapsible=0;dropTarget=0;pointerEvents=0;fillColor=none;top=0;left=0;bottom=0;right=0;points=[[0,0.5],[1,0.5]];portConstraint=eastwest;" vertex="1" parent="yGausGd8ZyBJmIqK0OZ9-0">
                    <mxGeometry y="120" width="180" height="30" as="geometry"/>
                </mxCell>
                <mxCell id="yGausGd8ZyBJmIqK0OZ9-11" value="" style="shape=partialRectangle;connectable=0;fillColor=none;top=0;left=0;bottom=0;right=0;editable=1;overflow=hidden;" vertex="1" parent="yGausGd8ZyBJmIqK0OZ9-10">
                    <mxGeometry width="30" height="30" as="geometry">
                        <mxRectangle width="30" height="30" as="alternateBounds"/>
                    </mxGeometry>
                </mxCell>
                <mxCell id="yGausGd8ZyBJmIqK0OZ9-12" value="PublicationYear" style="shape=partialRectangle;connectable=0;fillColor=none;top=0;left=0;bottom=0;right=0;align=left;spacingLeft=6;overflow=hidden;" vertex="1" parent="yGausGd8ZyBJmIqK0OZ9-10">
                    <mxGeometry x="30" width="150" height="30" as="geometry">
                        <mxRectangle width="150" height="30" as="alternateBounds"/>
                    </mxGeometry>
                </mxCell>
                <mxCell id="yGausGd8ZyBJmIqK0OZ9-13" value="" style="shape=partialRectangle;collapsible=0;dropTarget=0;pointerEvents=0;fillColor=none;top=0;left=0;bottom=0;right=0;points=[[0,0.5],[1,0.5]];portConstraint=eastwest;" vertex="1" parent="yGausGd8ZyBJmIqK0OZ9-0">
                    <mxGeometry y="150" width="180" height="30" as="geometry"/>
                </mxCell>
                <mxCell id="yGausGd8ZyBJmIqK0OZ9-14" value="" style="shape=partialRectangle;connectable=0;fillColor=none;top=0;left=0;bottom=0;right=0;editable=1;overflow=hidden;" vertex="1" parent="yGausGd8ZyBJmIqK0OZ9-13">
                    <mxGeometry width="30" height="30" as="geometry">
                        <mxRectangle width="30" height="30" as="alternateBounds"/>
                    </mxGeometry>
                </mxCell>
                <mxCell id="yGausGd8ZyBJmIqK0OZ9-15" value="Price" style="shape=partialRectangle;connectable=0;fillColor=none;top=0;left=0;bottom=0;right=0;align=left;spacingLeft=6;overflow=hidden;" vertex="1" parent="yGausGd8ZyBJmIqK0OZ9-13">
                    <mxGeometry x="30" width="150" height="30" as="geometry">
                        <mxRectangle width="150" height="30" as="alternateBounds"/>
                    </mxGeometry>
                </mxCell>
                <mxCell id="JauXWdw-TB61VIw48LCK-0" value="" style="shape=partialRectangle;collapsible=0;dropTarget=0;pointerEvents=0;fillColor=none;top=0;left=0;bottom=0;right=0;points=[[0,0.5],[1,0.5]];portConstraint=eastwest;" vertex="1" parent="yGausGd8ZyBJmIqK0OZ9-0">
                    <mxGeometry y="180" width="180" height="30" as="geometry"/>
                </mxCell>
                <mxCell id="JauXWdw-TB61VIw48LCK-1" value="" style="shape=partialRectangle;connectable=0;fillColor=none;top=0;left=0;bottom=0;right=0;editable=1;overflow=hidden;" vertex="1" parent="JauXWdw-TB61VIw48LCK-0">
                    <mxGeometry width="30" height="30" as="geometry">
                        <mxRectangle width="30" height="30" as="alternateBounds"/>
                    </mxGeometry>
                </mxCell>
                <mxCell id="JauXWdw-TB61VIw48LCK-2" value="WarehouseID" style="shape=partialRectangle;connectable=0;fillColor=none;top=0;left=0;bottom=0;right=0;align=left;spacingLeft=6;overflow=hidden;" vertex="1" parent="JauXWdw-TB61VIw48LCK-0">
                    <mxGeometry x="30" width="150" height="30" as="geometry">
                        <mxRectangle width="150" height="30" as="alternateBounds"/>
                    </mxGeometry>
                </mxCell>
                <mxCell id="Z26C9aIK0WeU5E7Tx9kA-0" value="" style="shape=partialRectangle;collapsible=0;dropTarget=0;pointerEvents=0;fillColor=none;top=0;left=0;bottom=0;right=0;points=[[0,0.5],[1,0.5]];portConstraint=eastwest;" vertex="1" parent="yGausGd8ZyBJmIqK0OZ9-0">
                    <mxGeometry y="210" width="180" height="30" as="geometry"/>
                </mxCell>
                <mxCell id="Z26C9aIK0WeU5E7Tx9kA-1" value="" style="shape=partialRectangle;connectable=0;fillColor=none;top=0;left=0;bottom=0;right=0;editable=1;overflow=hidden;" vertex="1" parent="Z26C9aIK0WeU5E7Tx9kA-0">
                    <mxGeometry width="30" height="30" as="geometry">
                        <mxRectangle width="30" height="30" as="alternateBounds"/>
                    </mxGeometry>
                </mxCell>
                <mxCell id="Z26C9aIK0WeU5E7Tx9kA-2" value="Quantity" style="shape=partialRectangle;connectable=0;fillColor=none;top=0;left=0;bottom=0;right=0;align=left;spacingLeft=6;overflow=hidden;" vertex="1" parent="Z26C9aIK0WeU5E7Tx9kA-0">
                    <mxGeometry x="30" width="150" height="30" as="geometry">
                        <mxRectangle width="150" height="30" as="alternateBounds"/>
                    </mxGeometry>
                </mxCell>
                <mxCell id="CSE4NT6ojP9YvrqOIBzu-0" value="" style="shape=partialRectangle;collapsible=0;dropTarget=0;pointerEvents=0;fillColor=none;top=0;left=0;bottom=0;right=0;points=[[0,0.5],[1,0.5]];portConstraint=eastwest;" vertex="1" parent="yGausGd8ZyBJmIqK0OZ9-0">
                    <mxGeometry y="240" width="180" height="30" as="geometry"/>
                </mxCell>
                <mxCell id="CSE4NT6ojP9YvrqOIBzu-1" value="" style="shape=partialRectangle;connectable=0;fillColor=none;top=0;left=0;bottom=0;right=0;editable=1;overflow=hidden;" vertex="1" parent="CSE4NT6ojP9YvrqOIBzu-0">
                    <mxGeometry width="30" height="30" as="geometry">
                        <mxRectangle width="30" height="30" as="alternateBounds"/>
                    </mxGeometry>
                </mxCell>
                <mxCell id="CSE4NT6ojP9YvrqOIBzu-2" value="PublisherID" style="shape=partialRectangle;connectable=0;fillColor=none;top=0;left=0;bottom=0;right=0;align=left;spacingLeft=6;overflow=hidden;" vertex="1" parent="CSE4NT6ojP9YvrqOIBzu-0">
                    <mxGeometry x="30" width="150" height="30" as="geometry">
                        <mxRectangle width="150" height="30" as="alternateBounds"/>
                    </mxGeometry>
                </mxCell>
                <mxCell id="DABETvZfK83TFZJGs9WN-13" value="ShoppingCart" style="shape=table;startSize=30;container=1;collapsible=1;childLayout=tableLayout;fixedRows=1;rowLines=0;fontStyle=1;align=center;resizeLast=1;fillColor=default;" vertex="1" parent="Htj5o6ON6LLLipoomDY7-1">
                    <mxGeometry x="790" y="-40" width="180" height="130" as="geometry"/>
                </mxCell>
                <mxCell id="DABETvZfK83TFZJGs9WN-23" value="" style="shape=partialRectangle;collapsible=0;dropTarget=0;pointerEvents=0;fillColor=none;top=0;left=0;bottom=0;right=0;points=[[0,0.5],[1,0.5]];portConstraint=eastwest;" vertex="1" parent="DABETvZfK83TFZJGs9WN-13">
                    <mxGeometry y="30" width="180" height="30" as="geometry"/>
                </mxCell>
                <mxCell id="DABETvZfK83TFZJGs9WN-24" value="" style="shape=partialRectangle;connectable=0;fillColor=none;top=0;left=0;bottom=0;right=0;editable=1;overflow=hidden;" vertex="1" parent="DABETvZfK83TFZJGs9WN-23">
                    <mxGeometry width="30" height="30" as="geometry">
                        <mxRectangle width="30" height="30" as="alternateBounds"/>
                    </mxGeometry>
                </mxCell>
                <mxCell id="DABETvZfK83TFZJGs9WN-25" value="CustomerID" style="shape=partialRectangle;connectable=0;fillColor=none;top=0;left=0;bottom=0;right=0;align=left;spacingLeft=6;overflow=hidden;fontStyle=4" vertex="1" parent="DABETvZfK83TFZJGs9WN-23">
                    <mxGeometry x="30" width="150" height="30" as="geometry">
                        <mxRectangle width="150" height="30" as="alternateBounds"/>
                    </mxGeometry>
                </mxCell>
                <mxCell id="DABETvZfK83TFZJGs9WN-14" value="" style="shape=partialRectangle;collapsible=0;dropTarget=0;pointerEvents=0;fillColor=none;top=0;left=0;bottom=1;right=0;points=[[0,0.5],[1,0.5]];portConstraint=eastwest;" vertex="1" parent="DABETvZfK83TFZJGs9WN-13">
                    <mxGeometry y="60" width="180" height="30" as="geometry"/>
                </mxCell>
                <mxCell id="DABETvZfK83TFZJGs9WN-15" value="PK" style="shape=partialRectangle;connectable=0;fillColor=none;top=0;left=0;bottom=0;right=0;fontStyle=1;overflow=hidden;" vertex="1" parent="DABETvZfK83TFZJGs9WN-14">
                    <mxGeometry width="30" height="30" as="geometry">
                        <mxRectangle width="30" height="30" as="alternateBounds"/>
                    </mxGeometry>
                </mxCell>
                <mxCell id="DABETvZfK83TFZJGs9WN-16" value="CartID" style="shape=partialRectangle;connectable=0;fillColor=none;top=0;left=0;bottom=0;right=0;align=left;spacingLeft=6;fontStyle=5;overflow=hidden;" vertex="1" parent="DABETvZfK83TFZJGs9WN-14">
                    <mxGeometry x="30" width="150" height="30" as="geometry">
                        <mxRectangle width="150" height="30" as="alternateBounds"/>
                    </mxGeometry>
                </mxCell>
                <mxCell id="DABETvZfK83TFZJGs9WN-17" value="" style="shape=partialRectangle;collapsible=0;dropTarget=0;pointerEvents=0;fillColor=none;top=0;left=0;bottom=0;right=0;points=[[0,0.5],[1,0.5]];portConstraint=eastwest;" vertex="1" parent="DABETvZfK83TFZJGs9WN-13">
                    <mxGeometry y="90" width="180" height="30" as="geometry"/>
                </mxCell>
                <mxCell id="DABETvZfK83TFZJGs9WN-18" value="" style="shape=partialRectangle;connectable=0;fillColor=none;top=0;left=0;bottom=0;right=0;editable=1;overflow=hidden;" vertex="1" parent="DABETvZfK83TFZJGs9WN-17">
                    <mxGeometry width="30" height="30" as="geometry">
                        <mxRectangle width="30" height="30" as="alternateBounds"/>
                    </mxGeometry>
                </mxCell>
                <mxCell id="DABETvZfK83TFZJGs9WN-19" value="PurchaseDate" style="shape=partialRectangle;connectable=0;fillColor=none;top=0;left=0;bottom=0;right=0;align=left;spacingLeft=6;overflow=hidden;" vertex="1" parent="DABETvZfK83TFZJGs9WN-17">
                    <mxGeometry x="30" width="150" height="30" as="geometry">
                        <mxRectangle width="150" height="30" as="alternateBounds"/>
                    </mxGeometry>
                </mxCell>
                <mxCell id="NE8HR9kz_UMvthi-iS0m-13" value="Wrote" style="shape=table;startSize=30;container=1;collapsible=1;childLayout=tableLayout;fixedRows=1;rowLines=0;fontStyle=1;align=center;resizeLast=1;fillColor=default;" vertex="1" parent="Htj5o6ON6LLLipoomDY7-1">
                    <mxGeometry x="1130" y="490" width="180" height="90" as="geometry"/>
                </mxCell>
                <mxCell id="NE8HR9kz_UMvthi-iS0m-14" value="" style="shape=partialRectangle;collapsible=0;dropTarget=0;pointerEvents=0;fillColor=none;top=0;left=0;bottom=0;right=0;points=[[0,0.5],[1,0.5]];portConstraint=eastwest;" vertex="1" parent="NE8HR9kz_UMvthi-iS0m-13">
                    <mxGeometry y="30" width="180" height="30" as="geometry"/>
                </mxCell>
                <mxCell id="NE8HR9kz_UMvthi-iS0m-15" value="" style="shape=partialRectangle;connectable=0;fillColor=none;top=0;left=0;bottom=0;right=0;editable=1;overflow=hidden;" vertex="1" parent="NE8HR9kz_UMvthi-iS0m-14">
                    <mxGeometry width="30" height="30" as="geometry">
                        <mxRectangle width="30" height="30" as="alternateBounds"/>
                    </mxGeometry>
                </mxCell>
                <mxCell id="NE8HR9kz_UMvthi-iS0m-16" value="WriterID" style="shape=partialRectangle;connectable=0;fillColor=none;top=0;left=0;bottom=0;right=0;align=left;spacingLeft=6;overflow=hidden;fontStyle=4" vertex="1" parent="NE8HR9kz_UMvthi-iS0m-14">
                    <mxGeometry x="30" width="150" height="30" as="geometry">
                        <mxRectangle width="150" height="30" as="alternateBounds"/>
                    </mxGeometry>
                </mxCell>
                <mxCell id="NE8HR9kz_UMvthi-iS0m-17" value="" style="shape=partialRectangle;collapsible=0;dropTarget=0;pointerEvents=0;fillColor=none;top=0;left=0;bottom=1;right=0;points=[[0,0.5],[1,0.5]];portConstraint=eastwest;" vertex="1" parent="NE8HR9kz_UMvthi-iS0m-13">
                    <mxGeometry y="60" width="180" height="30" as="geometry"/>
                </mxCell>
                <mxCell id="NE8HR9kz_UMvthi-iS0m-18" value="PK" style="shape=partialRectangle;connectable=0;fillColor=none;top=0;left=0;bottom=0;right=0;fontStyle=1;overflow=hidden;" vertex="1" parent="NE8HR9kz_UMvthi-iS0m-17">
                    <mxGeometry width="30" height="30" as="geometry">
                        <mxRectangle width="30" height="30" as="alternateBounds"/>
                    </mxGeometry>
                </mxCell>
                <mxCell id="NE8HR9kz_UMvthi-iS0m-19" value="BookID" style="shape=partialRectangle;connectable=0;fillColor=none;top=0;left=0;bottom=0;right=0;align=left;spacingLeft=6;fontStyle=5;overflow=hidden;" vertex="1" parent="NE8HR9kz_UMvthi-iS0m-17">
                    <mxGeometry x="30" width="150" height="30" as="geometry">
                        <mxRectangle width="150" height="30" as="alternateBounds"/>
                    </mxGeometry>
                </mxCell>
                <mxCell id="glevdNJSfQg7mAf8TcwR-0" value="Contains" style="shape=table;startSize=30;container=1;collapsible=1;childLayout=tableLayout;fixedRows=1;rowLines=0;fontStyle=1;align=center;resizeLast=1;fillColor=default;" vertex="1" parent="Htj5o6ON6LLLipoomDY7-1">
                    <mxGeometry x="790" y="220" width="180" height="160" as="geometry">
                        <mxRectangle x="540" y="600" width="80" height="30" as="alternateBounds"/>
                    </mxGeometry>
                </mxCell>
                <mxCell id="glevdNJSfQg7mAf8TcwR-1" value="" style="shape=partialRectangle;collapsible=0;dropTarget=0;pointerEvents=0;fillColor=none;top=0;left=0;bottom=0;right=0;points=[[0,0.5],[1,0.5]];portConstraint=eastwest;" vertex="1" parent="glevdNJSfQg7mAf8TcwR-0">
                    <mxGeometry y="30" width="180" height="30" as="geometry"/>
                </mxCell>
                <mxCell id="glevdNJSfQg7mAf8TcwR-2" value="" style="shape=partialRectangle;connectable=0;fillColor=none;top=0;left=0;bottom=0;right=0;editable=1;overflow=hidden;" vertex="1" parent="glevdNJSfQg7mAf8TcwR-1">
                    <mxGeometry width="30" height="30" as="geometry">
                        <mxRectangle width="30" height="30" as="alternateBounds"/>
                    </mxGeometry>
                </mxCell>
                <mxCell id="glevdNJSfQg7mAf8TcwR-3" value="CustomerID" style="shape=partialRectangle;connectable=0;fillColor=none;top=0;left=0;bottom=0;right=0;align=left;spacingLeft=6;overflow=hidden;fontStyle=4" vertex="1" parent="glevdNJSfQg7mAf8TcwR-1">
                    <mxGeometry x="30" width="150" height="30" as="geometry">
                        <mxRectangle width="150" height="30" as="alternateBounds"/>
                    </mxGeometry>
                </mxCell>
                <mxCell id="glevdNJSfQg7mAf8TcwR-19" value="" style="shape=partialRectangle;collapsible=0;dropTarget=0;pointerEvents=0;fillColor=none;top=0;left=0;bottom=0;right=0;points=[[0,0.5],[1,0.5]];portConstraint=eastwest;" vertex="1" parent="glevdNJSfQg7mAf8TcwR-0">
                    <mxGeometry y="60" width="180" height="30" as="geometry"/>
                </mxCell>
                <mxCell id="glevdNJSfQg7mAf8TcwR-20" value="" style="shape=partialRectangle;connectable=0;fillColor=none;top=0;left=0;bottom=0;right=0;editable=1;overflow=hidden;" vertex="1" parent="glevdNJSfQg7mAf8TcwR-19">
                    <mxGeometry width="30" height="30" as="geometry">
                        <mxRectangle width="30" height="30" as="alternateBounds"/>
                    </mxGeometry>
                </mxCell>
                <mxCell id="glevdNJSfQg7mAf8TcwR-21" value="CartID" style="shape=partialRectangle;connectable=0;fillColor=none;top=0;left=0;bottom=0;right=0;align=left;spacingLeft=6;overflow=hidden;fontStyle=4" vertex="1" parent="glevdNJSfQg7mAf8TcwR-19">
                    <mxGeometry x="30" width="150" height="30" as="geometry">
                        <mxRectangle width="150" height="30" as="alternateBounds"/>
                    </mxGeometry>
                </mxCell>
                <mxCell id="glevdNJSfQg7mAf8TcwR-4" value="" style="shape=partialRectangle;collapsible=0;dropTarget=0;pointerEvents=0;fillColor=none;top=0;left=0;bottom=1;right=0;points=[[0,0.5],[1,0.5]];portConstraint=eastwest;" vertex="1" parent="glevdNJSfQg7mAf8TcwR-0">
                    <mxGeometry y="90" width="180" height="30" as="geometry"/>
                </mxCell>
                <mxCell id="glevdNJSfQg7mAf8TcwR-5" value="PK" style="shape=partialRectangle;connectable=0;fillColor=none;top=0;left=0;bottom=0;right=0;fontStyle=1;overflow=hidden;" vertex="1" parent="glevdNJSfQg7mAf8TcwR-4">
                    <mxGeometry width="30" height="30" as="geometry">
                        <mxRectangle width="30" height="30" as="alternateBounds"/>
                    </mxGeometry>
                </mxCell>
                <mxCell id="glevdNJSfQg7mAf8TcwR-6" value="BookID" style="shape=partialRectangle;connectable=0;fillColor=none;top=0;left=0;bottom=0;right=0;align=left;spacingLeft=6;fontStyle=5;overflow=hidden;" vertex="1" parent="glevdNJSfQg7mAf8TcwR-4">
                    <mxGeometry x="30" width="150" height="30" as="geometry">
                        <mxRectangle width="150" height="30" as="alternateBounds"/>
                    </mxGeometry>
                </mxCell>
                <mxCell id="glevdNJSfQg7mAf8TcwR-7" value="" style="shape=partialRectangle;collapsible=0;dropTarget=0;pointerEvents=0;fillColor=none;top=0;left=0;bottom=0;right=0;points=[[0,0.5],[1,0.5]];portConstraint=eastwest;" vertex="1" parent="glevdNJSfQg7mAf8TcwR-0">
                    <mxGeometry y="120" width="180" height="30" as="geometry"/>
                </mxCell>
                <mxCell id="glevdNJSfQg7mAf8TcwR-8" value="" style="shape=partialRectangle;connectable=0;fillColor=none;top=0;left=0;bottom=0;right=0;editable=1;overflow=hidden;" vertex="1" parent="glevdNJSfQg7mAf8TcwR-7">
                    <mxGeometry width="30" height="30" as="geometry">
                        <mxRectangle width="30" height="30" as="alternateBounds"/>
                    </mxGeometry>
                </mxCell>
                <mxCell id="glevdNJSfQg7mAf8TcwR-9" value="PriceCut" style="shape=partialRectangle;connectable=0;fillColor=none;top=0;left=0;bottom=0;right=0;align=left;spacingLeft=6;overflow=hidden;" vertex="1" parent="glevdNJSfQg7mAf8TcwR-7">
                    <mxGeometry x="30" width="150" height="30" as="geometry">
                        <mxRectangle width="150" height="30" as="alternateBounds"/>
                    </mxGeometry>
                </mxCell>
                <mxCell id="hMc8Sq48BeCVxmsciqrw-0" style="edgeStyle=orthogonalEdgeStyle;html=1;exitX=1;exitY=0.5;exitDx=0;exitDy=0;entryX=0;entryY=0.5;entryDx=0;entryDy=0;" edge="1" parent="Htj5o6ON6LLLipoomDY7-1" source="DABETvZfK83TFZJGs9WN-23" target="rOToKN-Z1bet0K4fhbui-1">
                    <mxGeometry relative="1" as="geometry"/>
                </mxCell>
                <mxCell id="hMc8Sq48BeCVxmsciqrw-1" style="edgeStyle=orthogonalEdgeStyle;html=1;exitX=0;exitY=0.5;exitDx=0;exitDy=0;entryX=0;entryY=0.5;entryDx=0;entryDy=0;" edge="1" parent="Htj5o6ON6LLLipoomDY7-1" source="glevdNJSfQg7mAf8TcwR-1" target="DABETvZfK83TFZJGs9WN-23">
                    <mxGeometry relative="1" as="geometry">
                        <Array as="points">
                            <mxPoint x="700" y="265"/>
                            <mxPoint x="700" y="5"/>
                        </Array>
                    </mxGeometry>
                </mxCell>
                <mxCell id="hMc8Sq48BeCVxmsciqrw-2" style="edgeStyle=orthogonalEdgeStyle;html=1;exitX=0;exitY=0.5;exitDx=0;exitDy=0;entryX=0;entryY=0.5;entryDx=0;entryDy=0;" edge="1" parent="Htj5o6ON6LLLipoomDY7-1" source="glevdNJSfQg7mAf8TcwR-19" target="DABETvZfK83TFZJGs9WN-14">
                    <mxGeometry relative="1" as="geometry">
                        <Array as="points">
                            <mxPoint x="700" y="295"/>
                            <mxPoint x="700" y="35"/>
                        </Array>
                    </mxGeometry>
                </mxCell>
                <mxCell id="hMc8Sq48BeCVxmsciqrw-3" style="edgeStyle=orthogonalEdgeStyle;html=1;exitX=0;exitY=0.5;exitDx=0;exitDy=0;entryX=0;entryY=0.5;entryDx=0;entryDy=0;" edge="1" parent="Htj5o6ON6LLLipoomDY7-1" source="glevdNJSfQg7mAf8TcwR-4" target="yGausGd8ZyBJmIqK0OZ9-1">
                    <mxGeometry relative="1" as="geometry">
                        <Array as="points">
                            <mxPoint x="750" y="325"/>
                            <mxPoint x="750" y="470"/>
                        </Array>
                    </mxGeometry>
                </mxCell>
                <mxCell id="hMc8Sq48BeCVxmsciqrw-4" style="edgeStyle=orthogonalEdgeStyle;html=1;exitX=0;exitY=0.5;exitDx=0;exitDy=0;entryX=1.07;entryY=0.6;entryDx=0;entryDy=0;entryPerimeter=0;" edge="1" parent="Htj5o6ON6LLLipoomDY7-1" source="NE8HR9kz_UMvthi-iS0m-17" target="yGausGd8ZyBJmIqK0OZ9-1">
                    <mxGeometry relative="1" as="geometry"/>
                </mxCell>
                <mxCell id="hMc8Sq48BeCVxmsciqrw-5" style="edgeStyle=orthogonalEdgeStyle;html=1;exitX=1;exitY=0.5;exitDx=0;exitDy=0;entryX=0;entryY=0.5;entryDx=0;entryDy=0;" edge="1" parent="Htj5o6ON6LLLipoomDY7-1" source="NE8HR9kz_UMvthi-iS0m-14" target="asjq0dxXiQwIgg2_8ezU-13">
                    <mxGeometry relative="1" as="geometry"/>
                </mxCell>
                <mxCell id="hMc8Sq48BeCVxmsciqrw-6" style="edgeStyle=orthogonalEdgeStyle;html=1;exitX=0;exitY=0.5;exitDx=0;exitDy=0;entryX=1;entryY=0.5;entryDx=0;entryDy=0;" edge="1" parent="Htj5o6ON6LLLipoomDY7-1" source="JauXWdw-TB61VIw48LCK-0" target="JwsbKipex1hxOXb4tmm7-1">
                    <mxGeometry relative="1" as="geometry"/>
                </mxCell>
                <mxCell id="hMc8Sq48BeCVxmsciqrw-7" style="edgeStyle=orthogonalEdgeStyle;html=1;exitX=0;exitY=0.5;exitDx=0;exitDy=0;entryX=0;entryY=0.5;entryDx=0;entryDy=0;" edge="1" parent="Htj5o6ON6LLLipoomDY7-1" source="CSE4NT6ojP9YvrqOIBzu-0" target="fzP_hOgdrtJUyl95ZpHG-1">
                    <mxGeometry relative="1" as="geometry">
                        <Array as="points">
                            <mxPoint x="740" y="680"/>
                            <mxPoint x="740" y="895"/>
                        </Array>
                    </mxGeometry>
                </mxCell>
                <mxCell id="hMc8Sq48BeCVxmsciqrw-21" value="CustomerPhones" style="shape=table;startSize=30;container=1;collapsible=1;childLayout=tableLayout;fixedRows=1;rowLines=0;fontStyle=1;align=center;resizeLast=1;fillColor=default;" vertex="1" parent="Htj5o6ON6LLLipoomDY7-1">
                    <mxGeometry x="1860" y="-40" width="180" height="90" as="geometry"/>
                </mxCell>
                <mxCell id="hMc8Sq48BeCVxmsciqrw-22" value="" style="shape=partialRectangle;collapsible=0;dropTarget=0;pointerEvents=0;fillColor=none;top=0;left=0;bottom=0;right=0;points=[[0,0.5],[1,0.5]];portConstraint=eastwest;" vertex="1" parent="hMc8Sq48BeCVxmsciqrw-21">
                    <mxGeometry y="30" width="180" height="30" as="geometry"/>
                </mxCell>
                <mxCell id="hMc8Sq48BeCVxmsciqrw-23" value="" style="shape=partialRectangle;connectable=0;fillColor=none;top=0;left=0;bottom=0;right=0;editable=1;overflow=hidden;" vertex="1" parent="hMc8Sq48BeCVxmsciqrw-22">
                    <mxGeometry width="30" height="30" as="geometry">
                        <mxRectangle width="30" height="30" as="alternateBounds"/>
                    </mxGeometry>
                </mxCell>
                <mxCell id="hMc8Sq48BeCVxmsciqrw-24" value="CustomerID" style="shape=partialRectangle;connectable=0;fillColor=none;top=0;left=0;bottom=0;right=0;align=left;spacingLeft=6;overflow=hidden;fontStyle=4" vertex="1" parent="hMc8Sq48BeCVxmsciqrw-22">
                    <mxGeometry x="30" width="150" height="30" as="geometry">
                        <mxRectangle width="150" height="30" as="alternateBounds"/>
                    </mxGeometry>
                </mxCell>
                <mxCell id="hMc8Sq48BeCVxmsciqrw-25" value="" style="shape=partialRectangle;collapsible=0;dropTarget=0;pointerEvents=0;fillColor=none;top=0;left=0;bottom=1;right=0;points=[[0,0.5],[1,0.5]];portConstraint=eastwest;" vertex="1" parent="hMc8Sq48BeCVxmsciqrw-21">
                    <mxGeometry y="60" width="180" height="30" as="geometry"/>
                </mxCell>
                <mxCell id="hMc8Sq48BeCVxmsciqrw-26" value="PK" style="shape=partialRectangle;connectable=0;fillColor=none;top=0;left=0;bottom=0;right=0;fontStyle=1;overflow=hidden;" vertex="1" parent="hMc8Sq48BeCVxmsciqrw-25">
                    <mxGeometry width="30" height="30" as="geometry">
                        <mxRectangle width="30" height="30" as="alternateBounds"/>
                    </mxGeometry>
                </mxCell>
                <mxCell id="hMc8Sq48BeCVxmsciqrw-27" value="PhoneNumber" style="shape=partialRectangle;connectable=0;fillColor=none;top=0;left=0;bottom=0;right=0;align=left;spacingLeft=6;fontStyle=5;overflow=hidden;" vertex="1" parent="hMc8Sq48BeCVxmsciqrw-25">
                    <mxGeometry x="30" width="150" height="30" as="geometry">
                        <mxRectangle width="150" height="30" as="alternateBounds"/>
                    </mxGeometry>
                </mxCell>
                <mxCell id="hMc8Sq48BeCVxmsciqrw-28" style="edgeStyle=orthogonalEdgeStyle;html=1;exitX=0;exitY=0.5;exitDx=0;exitDy=0;entryX=1;entryY=0.5;entryDx=0;entryDy=0;" edge="1" parent="Htj5o6ON6LLLipoomDY7-1" source="hMc8Sq48BeCVxmsciqrw-22" target="rOToKN-Z1bet0K4fhbui-1">
                    <mxGeometry relative="1" as="geometry"/>
                </mxCell>
                <mxCell id="uqq3oOc-fFXEX9pYMbut-0" value="PublisherPhones" style="shape=table;startSize=30;container=1;collapsible=1;childLayout=tableLayout;fixedRows=1;rowLines=0;fontStyle=1;align=center;resizeLast=1;fillColor=default;" vertex="1" parent="Htj5o6ON6LLLipoomDY7-1">
                    <mxGeometry x="1095" y="850" width="180" height="90" as="geometry"/>
                </mxCell>
                <mxCell id="uqq3oOc-fFXEX9pYMbut-1" value="" style="shape=partialRectangle;collapsible=0;dropTarget=0;pointerEvents=0;fillColor=none;top=0;left=0;bottom=0;right=0;points=[[0,0.5],[1,0.5]];portConstraint=eastwest;" vertex="1" parent="uqq3oOc-fFXEX9pYMbut-0">
                    <mxGeometry y="30" width="180" height="30" as="geometry"/>
                </mxCell>
                <mxCell id="uqq3oOc-fFXEX9pYMbut-2" value="" style="shape=partialRectangle;connectable=0;fillColor=none;top=0;left=0;bottom=0;right=0;editable=1;overflow=hidden;" vertex="1" parent="uqq3oOc-fFXEX9pYMbut-1">
                    <mxGeometry width="30" height="30" as="geometry">
                        <mxRectangle width="30" height="30" as="alternateBounds"/>
                    </mxGeometry>
                </mxCell>
                <mxCell id="uqq3oOc-fFXEX9pYMbut-3" value="PublisherID" style="shape=partialRectangle;connectable=0;fillColor=none;top=0;left=0;bottom=0;right=0;align=left;spacingLeft=6;overflow=hidden;fontStyle=4" vertex="1" parent="uqq3oOc-fFXEX9pYMbut-1">
                    <mxGeometry x="30" width="150" height="30" as="geometry">
                        <mxRectangle width="150" height="30" as="alternateBounds"/>
                    </mxGeometry>
                </mxCell>
                <mxCell id="uqq3oOc-fFXEX9pYMbut-4" value="" style="shape=partialRectangle;collapsible=0;dropTarget=0;pointerEvents=0;fillColor=none;top=0;left=0;bottom=1;right=0;points=[[0,0.5],[1,0.5]];portConstraint=eastwest;" vertex="1" parent="uqq3oOc-fFXEX9pYMbut-0">
                    <mxGeometry y="60" width="180" height="30" as="geometry"/>
                </mxCell>
                <mxCell id="uqq3oOc-fFXEX9pYMbut-5" value="PK" style="shape=partialRectangle;connectable=0;fillColor=none;top=0;left=0;bottom=0;right=0;fontStyle=1;overflow=hidden;" vertex="1" parent="uqq3oOc-fFXEX9pYMbut-4">
                    <mxGeometry width="30" height="30" as="geometry">
                        <mxRectangle width="30" height="30" as="alternateBounds"/>
                    </mxGeometry>
                </mxCell>
                <mxCell id="uqq3oOc-fFXEX9pYMbut-6" value="PhoneNumber" style="shape=partialRectangle;connectable=0;fillColor=none;top=0;left=0;bottom=0;right=0;align=left;spacingLeft=6;fontStyle=5;overflow=hidden;" vertex="1" parent="uqq3oOc-fFXEX9pYMbut-4">
                    <mxGeometry x="30" width="150" height="30" as="geometry">
                        <mxRectangle width="150" height="30" as="alternateBounds"/>
                    </mxGeometry>
                </mxCell>
                <mxCell id="uqq3oOc-fFXEX9pYMbut-7" style="edgeStyle=orthogonalEdgeStyle;html=1;exitX=0;exitY=0.5;exitDx=0;exitDy=0;entryX=1;entryY=0.5;entryDx=0;entryDy=0;" edge="1" parent="Htj5o6ON6LLLipoomDY7-1" source="uqq3oOc-fFXEX9pYMbut-1" target="fzP_hOgdrtJUyl95ZpHG-1">
                    <mxGeometry relative="1" as="geometry"/>
                </mxCell>
            </root>
        </mxGraphModel>
    </diagram>
</mxfile>